<?xml version="1.0" encoding="UTF-8"?>
<!DOCTYPE svg PUBLIC "-//W3C//DTD SVG 1.1//EN" "http://www.w3.org/Graphics/SVG/1.1/DTD/svg11.dtd">
<!-- Creator: CorelDRAW 2021 (64-Bit) -->
<svg xmlns="http://www.w3.org/2000/svg" xml:space="preserve" width="210.024mm" height="328.083mm" version="1.1" style="shape-rendering:geometricPrecision; text-rendering:geometricPrecision; image-rendering:optimizeQuality; fill-rule:evenodd; clip-rule:evenodd"
viewBox="0 0 14607.2 22818.29"
 xmlns:xlink="http://www.w3.org/1999/xlink"
 xmlns:xodm="http://www.corel.com/coreldraw/odm/2003">
 <defs>
  <style type="text/css">
   <![CDATA[
    .fil0 {fill:black}
    .fil1 {fill:white}
   ]]>
  </style>
 </defs>
 <g id="Layer_x0020_1">
  <metadata id="CorelCorpID_0Corel-Layer"/>
  <g id="_1955177914064">
   <path class="fil0" d="M5612.76 0c27.85,37.29 40.06,75.28 47.3,113.52 6.23,38.28 7.61,76.8 11.63,115.2l20.76 230.5c14.62,153.64 27.08,307.39 39.48,461.13 13.59,153.66 23.77,307.51 34.96,461.29 11.83,153.73 20.93,307.64 31.21,461.47 39.46,615.39 78.84,1230.75 123.03,1845.68 44.53,614.89 89.31,1229.64 141.01,1843.55 25.74,306.98 54.67,613.42 82.93,919.92l48.5 458.67 55.72 456.88 -177.42 25.85c-21.05,-153.53 -44.39,-307 -63.52,-460.71l-53.41 -461.06 -47.06 -461.24 -41.13 -461.57c-52.34,-615.53 -100.23,-1231.12 -137.52,-1847.32 -38.48,-616.1 -75.8,-1232.19 -106.51,-1848.6 -7.43,-154.12 -15.16,-308.22 -20.64,-462.43 -6.09,-154.19 -11.88,-308.38 -15.02,-462.71 -3.92,-154.28 -7.31,-308.59 -8.46,-463l-2.43 -231.59c0.29,-38.63 -2.09,-77.12 0.36,-115.86 3.46,-38.77 12,-77.82 36.22,-117.57z"/>
   <polygon class="fil0" points="3790.59,8027.76 3720.31,6158.69 3899.5,6151.94 3969.75,8021.01 "/>
   <path class="fil0" d="M4128.34 1115.58c69.56,278.06 108.28,555.96 135.26,836.03 15.63,139.78 31.21,279.58 45.44,419.46l43.89 419.68 82.66 840.01 86.32 839.66c59.92,559.57 122.51,1118.79 189.54,1677.25 33.5,279.23 68.87,558.14 105.95,836.57 19.56,138.79 36.14,278.68 58.15,416.61l31.83 207.22 37.2 203.91 -175.31 37.54 -39.8 -211.3 -33.42 -209.97c-23.09,-139.97 -40.42,-279.65 -60.9,-419.48 -37.22,-279.74 -71.82,-559.54 -104.94,-839.4 -66.12,-559.76 -127.73,-1119.79 -186.67,-1680.06l-86.61 -840.62c-28.8,-280.2 -56.66,-560.55 -81.58,-841.16 -24.22,-280.7 -45.81,-561.71 -62.59,-843.15 -8.19,-140.85 -17.37,-281.42 -15.61,-423.11 0.91,-141.33 7.48,-283.84 31.19,-425.7z"/>
   <path class="fil1" d="M2890.63 17899.03c-151.8,-62.15 -330.79,-88.43 -519.64,-88.75l-0.3 0c-536.07,-0.88 -1152.23,208.29 -1454.33,405.8 69.63,-196.01 -39.74,-496.31 -104.59,-620.95 -64.84,-124.3 -259.06,-438.03 -433.28,-537.85 149.42,-199.01 353.5,-14.95 931.42,-59.77 577.61,-44.83 796.64,-308.66 914.68,-477.2l93.82 193.93 572.23 1184.78z"/>
   <path class="fil0" d="M471.09 17048.77c170.98,136.44 338.3,412.55 393.68,518.74 57.02,109.58 141.72,334.52 132.99,531.15 332.3,-179.18 879.89,-348.11 1369.45,-348.11 1.21,0 2.39,0 3.59,0 149.37,0.22 284.86,16.19 404.71,47.57l-562.01 -1163.49c-153.07,189.27 -400.88,383.81 -898.97,422.48 -250,19.31 -433.82,-3.29 -568.05,-19.85 -149.14,-18.4 -221.47,-24.78 -275.39,11.5zm445.27 1227.11c-13.08,0 -26.14,-4.29 -36.94,-12.8 -20.18,-15.85 -27.96,-42.79 -19.38,-66.96 58.25,-164 -31.21,-438.7 -101.27,-573.41 -80.16,-153.62 -262.36,-429.01 -409.98,-513.55 -14.87,-8.54 -25.37,-23.02 -28.84,-39.82 -3.45,-16.78 0.45,-34.23 10.75,-47.94 107.11,-142.63 242.71,-125.97 430.42,-102.76 136.4,16.83 306.12,37.71 544.16,19.29 585.66,-45.42 785.15,-330.27 870.35,-451.9 12.16,-17.39 32.72,-27.31 53.75,-25.25 21.12,1.67 39.78,14.45 49.01,33.52l666.05 1378.76c10.77,22.3 6.68,48.9 -10.28,66.94 -16.95,18.03 -43.25,23.75 -66.17,14.36 -135.83,-55.63 -303.07,-83.99 -497.08,-84.28 -1.14,0 -2.32,0 -3.45,0 -528.01,0 -1124.37,203.82 -1418.38,396.05 -9.97,6.53 -21.36,9.76 -32.72,9.76z"/>
   <path class="fil0" d="M2890.63 17899.03l-519.64 -88.75 -0.3 0c0,0 -257.88,-479.28 -52.29,-1096.04l572.23 1184.78z"/>
   <path class="fil0" d="M734.91 16975.61c121.7,251.1 460.36,793.95 1361.77,599.73 -652.4,-164.34 -979.36,-215.45 -1244.18,-585.81l-117.59 -13.91z"/>
   <path class="fil0" d="M1013.26 17002.2c80.04,76.28 172.64,132.91 270.22,177.61 97.98,44 201.33,75.2 306.56,98.02l79.31 16.05 80.14 12.39c26.59,5.13 53.7,6.91 80.58,10.47 26.92,3.21 53.87,6.52 81,8.49 108.33,11.31 217.5,13.59 327.8,21 -108.82,17.42 -219.35,28.27 -330.21,25.59 -110.81,-1.47 -222.08,-11.98 -331.34,-35.62 -108.77,-24.79 -216.41,-60.09 -314.65,-114.86 -97.76,-54.3 -188.22,-126.5 -249.39,-219.15z"/>
   <path class="fil0" d="M718.29 17396.67c68.61,8.95 128.31,40.78 182.11,75.91 54.07,35.55 102.38,77.53 146.79,122.39 44.37,44.99 85.35,92.74 122.27,143.43 37.05,50.56 70.6,103.73 98.01,160.63 -48.75,-40.21 -94.28,-81.9 -139.71,-123.19 -45.55,-41.13 -90.6,-82.05 -136.1,-121.64 -45.11,-40.12 -91.83,-77.53 -139.13,-112.33 -47.59,-34.27 -96.29,-66.14 -148.16,-87.08l13.92 -58.12z"/>
   <path class="fil1" d="M4608.53 18147.98l-1104.43 68.11 -413.84 25.39c-1411.91,-2309.56 -2338.24,-6189.37 -2474.21,-7061.59l2093.22 1355.43 543.83 1607.33 1355.43 4005.32z"/>
   <path class="fil0" d="M2722.98 18407.02c-47.01,0 -86.49,-36.6 -89.41,-84.16 -3,-49.42 34.62,-91.94 84.03,-94.95l1660.16 -101.27c49.54,-3.07 91.94,34.57 94.96,83.99 2.99,49.42 -34.62,91.91 -84.04,94.93l-1660.19 101.28c-1.84,0.13 -3.69,0.17 -5.52,0.17z"/>
   <path class="fil1" d="M462.68 11044.61l0 0c-8.17,14.95 -3.41,33.65 10.88,42.92l2191.47 1419.15c20.32,13.15 47.38,0.3 50.06,-23.74l26.6 -239.43c1.47,-13.25 -5.3,-26.05 -17.07,-32.33l-2218.06 -1179.7c-15.75,-8.39 -35.32,-2.52 -43.86,13.15z"/>
   <path class="fil0" d="M737.59 11205.11l1935.14 1253.14 23.48 -211.43 -1958.62 -1041.71zm1945.08 1351.67c-14.65,0 -29.2,-4.19 -42.03,-12.51l-2191.45 -1419.1c-33.75,-21.91 -45.12,-66.71 -25.88,-101.99l0.01 -0.03c20.23,-37.02 66.98,-51.08 104.26,-31.28l2218.07 1179.73c28.19,15 44.09,45.18 40.58,76.85l-26.6 239.44c-2.99,26.85 -19.36,49.78 -43.75,61.37 -10.62,5.02 -21.96,7.53 -33.22,7.53z"/>
   <path class="fil0" d="M697.82 11304.03c197.23,1085.98 1098.69,4686.71 2424.75,6875.59l1404.31 -86.51 -1867.57 -5518.93 -1961.49 -1270.15zm2392.42 6997.22c-20.73,0 -40.1,-10.77 -50.99,-28.59 -1406.76,-2301.14 -2342.76,-6188.74 -2482.24,-7083.56 -3.63,-23.31 6.75,-46.54 26.52,-59.35 19.79,-12.81 45.26,-12.83 65.01,-0.02l2093.21 1355.42c11.28,7.32 19.79,18.24 24.11,31l1899.27 5612.66c5.96,17.62 3.38,37 -7,52.48 -10.38,15.43 -27.35,25.17 -45.93,26.3l-1518.3 93.53c-1.23,0.09 -2.46,0.12 -3.68,0.12z"/>
   <path class="fil0" d="M4608.53 18147.98l-1104.43 68.11c-620.63,-1532.31 -767.95,-3307.6 -251,-4073.43l1355.43 4005.32z"/>
   <path class="fil0" d="M2885.43 14810.05c-310.65,683.52 -265.82,1946.04 -79.05,2468.97 0,-836.7 18.01,-1472.69 180.82,-2151.98l-101.77 -316.98z"/>
   <path class="fil0" d="M2612.3 14522.42c-27.09,195.89 -47.18,389.56 -61.19,583.8 -13.76,194.17 -20.59,388.33 -21.98,582.41 -0.86,194.08 3.36,388.16 16.56,582.07 13.3,194 35.11,387.27 66.62,582.5 -79.42,-181.55 -128.22,-376.01 -159.26,-571.9 -30.94,-196.22 -44.94,-394.96 -43.42,-593.38 1.24,-198.45 17.65,-396.69 49.19,-592.46 31.8,-195.48 78.54,-389.7 153.5,-573.04z"/>
   <path class="fil1" d="M7273.66 18201.44l-1997.87 206.47 -828.91 85.78c-713.58,-939.48 -1697.56,-3826.04 -2291.01,-6314.88 -301.8,-1265.49 -502.9,-2428.45 -515.46,-3179.98l5080.45 1922.89 552.81 7279.72z"/>
   <path class="fil0" d="M6720.84 10921.72l-5080.45 -1922.9c12.55,751.54 213.66,1914.51 515.46,3179.99 1001.63,-121.63 3254.38,-214.54 4492.38,834.61 -82.39,67.72 -196.19,212.92 -323.65,422.7 -432.96,369.17 -1336.85,1549.49 -1396.63,3730.82 245.41,-1072.78 479.9,-2185.06 1031.81,-3015.62 -437.72,1004.81 -853.99,2551.26 -685.78,4245.87l1.79 10.72 1997.87 -206.47 -552.81 -7279.72z"/>
   <path class="fil0" d="M1702.44 9086.22c24.61,706.23 205.01,1793.4 511.54,3078.75 549.32,2303.82 1524.19,5266.24 2260.44,6265.78l2735.25 -282.76 -545.53 -7183.86 -4961.7 -1877.91zm2744.43 9467.23c-18.58,0 -36.22,-8.64 -47.6,-23.61 -748.42,-985.35 -1744.38,-4000.48 -2301.54,-6337.15 -321.58,-1348.42 -505.21,-2482.33 -517.07,-3192.87 -0.34,-19.83 9.15,-38.5 25.37,-49.91 16.22,-11.39 36.99,-14.01 55.53,-6.99l5080.47 1922.86c21.69,8.22 36.67,28.24 38.42,51.38l552.81 7279.74c2.43,32.26 -21.25,60.63 -53.46,63.97l-2826.77 292.24c-2.06,0.22 -4.12,0.32 -6.16,0.32z"/>
   <path class="fil0" d="M3699.14 17219.74c-802.49,-2092.12 -456.88,-4410.79 -255.99,-5127.68l115.1 32.26c-197.93,706.28 -538.39,2990.81 252.45,5052.63l-111.56 42.79z"/>
   <path class="fil0" d="M4550.9 18475.06c-687.17,-2517.42 -467.23,-5241.16 -151.7,-6457.75l115.71 30c-216.11,833.26 -610.18,3606.67 151.31,6396.27l-115.32 31.48z"/>
   <path class="fil0" d="M5459.02 16336.2c-402.93,-1194.65 -302.36,-3194.19 -144.32,-4173.96l117.99 19.02c-156.2,968.49 -256.45,2942.53 139.56,4116.69l-113.23 38.25z"/>
   <polygon class="fil1" points="5760.02,10558.04 5555.47,10690.13 6211.7,10932.86 6211.7,10678.91 "/>
   <path class="fil0" d="M6221.81 10787.26c-9.01,0 -18.16,-1.64 -27.04,-5.08l-5021.59 -1950.47c-38.45,-14.92 -57.52,-58.22 -42.59,-96.67 14.97,-38.48 58.24,-57.54 96.7,-42.59l5021.59 1950.44c38.47,14.95 57.51,58.23 42.59,96.7 -11.48,29.56 -39.73,47.67 -69.65,47.67z"/>
   <path class="fil0" d="M5236.31 14612.07c-38.08,61.39 -66.42,127.39 -93.19,193.49 -26.71,66.18 -49.32,134.02 -70.64,202.03 -42.43,136.26 -76.7,274.93 -107.81,414.04 -29.52,139.56 -57.54,279.39 -78.74,420.4 -22.57,140.73 -41.76,282.04 -54.72,423.93 -15.18,141.62 -24.93,283.76 -30.4,425.99 -7.28,142.26 -5.69,284.59 -1.88,426.87 10.77,284.37 42.2,568.69 117.92,847.44 -122.97,-262.39 -182.67,-552.49 -210.98,-841.31 -15.11,-144.8 -18.92,-290.48 -18.18,-435.83 2.13,-145.39 11.16,-290.55 24.68,-435.21 30.13,-288.96 82.44,-575.66 162.23,-855.02 39.46,-139.76 86.86,-277.4 143.09,-411.47 29.86,-66.37 59.43,-132.81 95.69,-196.04 35.6,-63.3 74.66,-125.3 122.92,-179.31z"/>
   <path class="fil1" d="M9539.26 17514.05c-0.1,-141.72 -2367.38,-80.82 -3027.59,205.73 -525.31,-2569.83 -289.84,-7007.25 -289.84,-7007.25 0,-0.01 673.53,1400.55 1298.65,2750.02 379.2,819.05 740.44,1618.97 922.42,2075.85 481.71,1210.2 1096.36,1975.65 1096.36,1975.65z"/>
   <path class="fil0" d="M6270.83 10953.05c-38.59,944.14 -146.82,4485.12 285.45,6685.07 614.91,-219.08 2261.24,-303.88 2826.59,-234.27 -200.21,-280.27 -637.02,-942.77 -995.47,-1843.35 -157.47,-395.35 -467.38,-1092.75 -921.17,-2072.88 -474.83,-1025 -982.72,-2090.15 -1195.4,-2534.57zm240.85 6826.47c-9.47,0 -18.97,-2.25 -27.58,-6.72 -15.97,-8.35 -27.35,-23.41 -30.96,-41.08 -520.82,-2547.85 -293.35,-6977.9 -290.99,-7022.36 1.45,-27.26 21.2,-50.08 47.94,-55.43 26.8,-5.4 53.78,8.12 65.61,32.71 6.73,14.01 680.85,1416.38 1299.02,2750.75 454.71,982.12 765.49,1681.56 923.72,2078.89 425.8,1069.71 962.37,1797.3 1068.7,1936.2 27.53,21.41 31.9,47.35 31.92,61.51 0.01,25.36 -16,47.99 -39.92,56.43 -23.94,8.34 -50.59,0.81 -66.46,-18.99 -0.35,-0.42 -2.63,-3.31 -6.7,-8.53 -215.32,-94.57 -2341.56,-32.63 -2950.49,231.69 -7.58,3.31 -15.7,4.93 -23.8,4.93z"/>
   <path class="fil0" d="M7674.57 15403.94c-25.12,80.3 -34.13,161.43 -37.07,243.45 -3.97,81.7 -1.84,163.65 1.2,245.46 7.78,163.65 23.72,327.14 43.62,490.08 20.23,162.96 45.37,325.34 75.18,486.98 15.88,80.57 32.26,161.18 52.92,240.77 19.78,80.06 43.97,158.33 77.44,235.57 -56.2,-63.2 -96.92,-139.48 -132.76,-216.01 -34.5,-77.42 -63.92,-156.98 -88.13,-237.9 -49.31,-161.61 -82.36,-327.5 -103.22,-494.76 -19.97,-167.34 -29.25,-336.48 -17.94,-505.71 4.94,-84.55 15.8,-169.08 33.86,-252.35 19.24,-82.44 45.61,-166.5 94.9,-235.57z"/>
   <path class="fil0" d="M9539.26 17514.05c-438.16,-85.85 -903.78,-96.13 -1389.46,-51.06 0,-0.01 -505.03,-1058.01 -659.5,-2930.7 -43.03,-522.03 -22.11,-857.28 30.18,-1069.74 379.2,819.05 740.44,1618.97 922.42,2075.85 481.71,1210.2 1096.36,1975.65 1096.36,1975.65z"/>
   <path class="fil0" d="M7449.21 15713.98c-11.73,138.82 -9.23,277.05 -8.05,415.61 2.54,138.47 5.23,276.96 10.31,415.44 4,138.47 9.54,276.96 14.72,415.49 6.28,138.58 10.72,276.91 24.12,415.61 -37.95,-134.6 -55.63,-273.84 -70.64,-412.22 -14.69,-138.66 -22.82,-277.77 -27.87,-417.01 -3.95,-139.27 -4.1,-278.75 2.94,-418.14 7.54,-138.98 18.23,-279.66 54.47,-414.78z"/>
   <path class="fil0" d="M7254.99 15713.98c16.07,159.03 5.77,319.63 -10.7,477.85 -16.64,158.6 -43.43,315.78 -76.07,471.75 -17.96,77.63 -35.62,155.33 -56.6,232.28 -10.26,38.52 -21.74,76.78 -33.32,114.98l-17.27 57.26 -19.61 56.68c-25.49,75.67 -54.62,150.33 -88.13,223.18l-25.68 54.28c-9.52,17.74 -19.02,35.43 -28.98,52.82 -18.13,35.62 -43.14,67.94 -65.7,100.35 62.81,-146.36 101.75,-298.33 141.47,-450.62 18.82,-76.34 38.25,-152.61 54.89,-229.54 18.23,-76.57 35.03,-153.49 51.38,-230.51l24.95 -115.49 23.5 -115.82c16.41,-77.07 30.87,-154.55 46.22,-231.89 29.3,-155.06 58.6,-309.67 79.65,-467.57z"/>
   <path class="fil0" d="M6511.68 17719.77c0,0 321.25,-859.12 354.86,-1852.67 108.3,500.5 -78.29,1726.15 -115.71,1843.55l-239.15 9.12z"/>
   <path class="fil1" d="M8805.08 16713.76c25.18,62.66 52.95,118.56 85.51,171.71 32.17,53.07 68.14,102.95 107.34,150.16 39.29,47.11 81.73,91.54 128.03,133.03 46.26,41.88 96.43,79.62 152.15,117.83 -67.91,-2.53 -133.94,-26.55 -193.25,-60.56 -59.25,-34.55 -112.02,-80.18 -155.85,-133.01 -43.82,-52.87 -79.03,-113.06 -102.07,-177.71 -22.37,-64.53 -34,-134.52 -21.86,-201.44z"/>
   <path class="fil0" d="M10335.55 5830.93c-15.31,-55.67 -72.71,-88.52 -128.52,-73.21l-8376.79 2295.9c-55.71,15.26 -88.48,72.8 -73.22,128.52 12.73,46.43 54.85,76.96 100.81,76.96 9.14,0 18.44,-1.22 27.71,-3.75l8376.77 -2295.92c55.7,-15.26 88.5,-72.78 73.24,-128.51z"/>
   <path class="fil1" d="M11405.04 8562.87c0,0 -2100.39,-150.01 -4476.85,344.83l-0.31 0c-110.86,23.01 -222,47.52 -333.76,73.51 -2510.06,582.7 -4840.82,2188.84 -4840.82,2188.84 -24.79,-216.36 -22.42,-467.65 0.3,-734.8 79.49,-940.09 410.87,-2073.18 701.01,-2552.77l7303.35 -2001.75c528.62,1933.6 1647.08,2682.15 1647.08,2682.15z"/>
   <path class="fil0" d="M10653.93 7783.43c-391.86,-102.06 -1391.35,-195.42 -1669.3,329.21 -903.92,166.34 -948.03,360.7 -619.7,383.05 328.34,22.35 1695.48,53.96 1695.48,53.96l537.83 -8.15 806.81 21.37c0,0 -527.79,-448.73 -751.12,-779.44z"/>
   <path class="fil1" d="M9847.46 8095.97c429.55,280.13 1139.27,449.87 1139.27,449.87l-388.49 -4.35c0,0 -354.84,-101.89 -750.77,-445.53z"/>
   <path class="fil1" d="M11092.82 8277.47c-227.01,-14.53 -873.11,-225.06 -1029.96,-342.1 253.97,216.62 804.99,497.71 1298.92,590.02l-268.96 -247.91z"/>
   <path class="fil0" d="M6927.88 8907.7c-110.86,23.01 -222,47.52 -333.76,73.51 -582.7,135.36 -1155.84,325.71 -1692.19,538.47 -0.31,-0.01 -0.61,0 -0.9,0.29 -1774.06,703.41 -3147.73,1650.08 -3147.73,1650.08 -3.58,-31.68 -6.58,-63.97 -8.96,-97.11 -14.64,-193.05 -10.16,-409.7 9.26,-637.69 104.59,-368.72 248.61,-547.74 353.2,-547.74 104.58,-0.01 2308.34,-1030.6 4821.08,-979.81z"/>
   <path class="fil1" d="M4901.03 9519.96c-1774.06,703.42 -3147.73,1650.09 -3147.73,1650.09 -3.58,-31.68 2.4,33.15 0,0 194.23,-433.28 1933.64,-1385.61 3147.73,-1650.09z"/>
   <path class="fil0" d="M2493.7 7933.72c-266.98,457.52 -600.5,1559.87 -680.54,2506.56 -19.85,233.48 -23.08,442.99 -9.7,624.42 441.21,-290.24 2550.62,-1624.81 4777.14,-2141.68 112.38,-26.13 225.14,-50.99 335.13,-73.83 0.88,-0.17 1.77,-0.32 2.65,-0.49 1947.38,-405.12 3729.11,-377.58 4300.7,-354.96 -324.33,-275.91 -1081.64,-1049.62 -1502.74,-2539.64l-7222.64 1979.63zm-740.4 3296.07c-8.41,0 -16.85,-1.77 -24.74,-5.35 -19.1,-8.69 -32.25,-26.74 -34.64,-47.57 -24.14,-210.57 -24.1,-461.79 0.13,-746.7 76.19,-901.18 394.44,-2057.99 709.43,-2578.64 7.94,-13.08 20.57,-22.65 35.33,-26.69l7303.36 -2001.78c15.26,-4.24 31.58,-2.12 45.39,5.73 13.77,7.85 23.85,20.88 28.04,36.16 516.72,1890.25 1611.66,2640.91 1622.65,2648.27 22.56,15.06 32.12,43.43 23.31,69.04 -8.78,25.66 -33.88,42.08 -60.8,40.24 -20.88,-1.5 -2120.07,-143.61 -4460.41,343.72 -0.9,0.19 -1.79,0.34 -2.7,0.49 -108.35,22.52 -219.38,46.96 -330.01,72.7 -2469.74,573.34 -4797.22,2163.83 -4820.45,2179.86 -10.13,6.97 -21.98,10.52 -33.91,10.52z"/>
   <polygon class="fil0" points="9832.05,6139.36 8478.14,6448.45 9800.45,6024.08 "/>
   <path class="fil0" d="M2324.32 8135.08c561.38,-153.85 1490.8,-431.3 2469.43,-438.76 -684.79,258.95 -1307.32,801.81 -1546.39,1065.76 642.48,-448.22 1678.37,-1011 2111.65,-1135.49l-1060.8 831.69c0,0 1817.81,-1115.57 1987.13,-1185.29 169.32,-69.74 234.07,24.9 234.07,24.9 0,-0.01 715.05,-360.69 835.63,-414.4 120.6,-53.74 803.79,-239.98 1669.91,-801.75l-6570.26 1800.73 -130.37 252.62z"/>
   <path class="fil0" d="M2186.58 9720.78c13.4,-107.61 57.49,-210.78 110,-305.69 53.9,-94.76 117.34,-183.4 185.97,-267.12 34.72,-41.56 70.2,-82.34 106.59,-122.28 37.12,-39.24 74.56,-78.1 112.79,-116.11 76.6,-75.84 154.55,-150.18 235.79,-220.75 161.4,-142.27 330.67,-275.02 506.03,-398.95 175.63,-123.15 357.31,-239.37 550.68,-332.12 -179.89,116.12 -349.75,245.12 -516.48,377.73 -166.13,133.23 -328.46,271.07 -484.43,415.27 -77.51,72.62 -154.96,145.18 -229.16,220.85 -74.18,75.69 -146.29,153.13 -215.89,232.37 -69.66,79.22 -137.46,159.9 -199.76,244.65 -62.91,84.5 -119.06,173.15 -162.11,272.14z"/>
   <path class="fil0" d="M10214.32 7893.68c-163.71,-121.14 -310.43,-256.99 -449.28,-399.15 -138.25,-142.63 -269.42,-290.91 -391.93,-445.66 140.91,137.97 289.08,267.93 442.08,390.29 153.25,121.75 312.86,235.3 479.7,328.7l-80.57 125.82z"/>
   <path class="fil0" d="M10520.62 7888.23c-82.41,-77.53 -151.53,-159.65 -219.91,-242.85 -67.92,-83.28 -133.15,-167.87 -196.63,-253.63 -127.09,-171.25 -249.06,-345.53 -367.27,-522.16 138.02,161.54 279.34,320.12 424.54,474.17 72.51,77.11 146.4,152.73 221.85,225.8 75.38,72.6 152.81,144.64 232.9,203.75l-95.47 114.92z"/>
   <path class="fil1" d="M9738.6 17564.66c3.58,53.8 -37.96,99.81 -92.95,103.39l-2291 143.43 -1471.68 92.33c-2.09,0 -4.17,0.29 -6.26,0.29 -52.31,0 -95.93,-39.72 -99.51,-91.12 -3.29,-53.48 38.25,-99.81 93.23,-103.39l3198.51 -200.48 563.86 -35.28c54.1,-3.29 102.51,37.37 105.8,90.83z"/>
   <path class="fil0" d="M9638.9 17518.46c-1.13,0 -2.25,0.02 -3.39,0.08l-3762.28 235.81c-30.01,1.93 -53.07,27.03 -51.31,55.89 1.91,27.33 25.98,49.07 54.78,49.07 2.09,-0.2 4.19,-0.32 6.26,-0.32l3759.88 -235.67c15.04,-0.98 28.71,-7.6 38.37,-18.62 9.06,-10.36 13.55,-23.51 12.67,-37.07l-0.03 -0.2c-1.69,-27.24 -26.47,-48.97 -54.96,-48.97zm-3762.19 430.48c-75.66,0 -139.02,-58.35 -144.25,-132.84 -4.78,-78.37 55.8,-146.03 135.05,-151.24l3762.49 -235.79c79.54,-4.81 148.46,54.72 153.32,132.76 2.46,37.42 -9.87,73.63 -34.7,101.95 -25.49,29.07 -61.02,46.47 -100.08,49l-3762.77 235.79c-4.9,0.24 -6.97,0.37 -9.06,0.37z"/>
   <path class="fil0" d="M9738.6 17564.66c3.58,53.8 -37.96,99.81 -92.95,103.39l-2291 143.43 -23.61 -41.83c298.5,-22.4 1864.89,-129.4 1864.89,-159.56 -2.38,-29.89 25.71,-67.84 -131.17,-58.27 -30.17,1.79 -24.51,-14.65 4.17,-42.72l563.86 -35.28c54.1,-3.29 102.51,37.37 105.8,90.83z"/>
   <path class="fil1" d="M11875.74 8557.47l-680.43 186.47c0,0 0,0 0,0.3l-9404.6 2579.66c-0.3,0 -0.3,0.01 -0.6,0.01l-243.54 66.93 -19.72 5.37c-9.26,2.41 -18.83,3.59 -27.8,3.59 -46.01,-0.01 -88.15,-30.47 -100.99,-76.77 -15.24,-55.9 17.64,-113.26 73.22,-128.79l28.38 -7.78 152.7 -41.83 9709.38 -2663.34 458.7 -125.82c55.57,-14.94 113.25,17.64 128.49,73.22 15.24,55.89 -17.64,113.26 -73.19,128.79z"/>
   <path class="fil0" d="M11847.82 8411.63c-3.91,0 -7.91,0.5 -11.86,1.55l-10348.91 2838.69c-23.66,6.62 -37.84,31.51 -31.33,55.42 6.37,23.06 31.05,37.54 56.18,31.07l262.36 -72.1c1.4,-0.39 2.8,-0.7 4.21,-0.97l9395.53 -2577.19c1.81,-0.69 3.6,-1.27 5.54,-1.79l680.14 -186.41c23.92,-6.72 38.07,-31.62 31.58,-55.52 -5.4,-19.71 -23.63,-32.76 -43.45,-32.77zm-10348.77 3047.94c-73.67,0 -138.9,-49.59 -158.58,-120.59 -23.83,-87.33 27.65,-177.96 114.7,-202.3l181.4 -49.69 10168.07 -2789.13c87.79,-23.57 178.13,28.1 201.93,115.03 23.75,87.17 -27.73,177.81 -114.78,202.15 -0.08,0.03 -0.17,0.06 -0.3,0.08l-674.88 184.95c-1.79,0.72 -3.6,1.3 -5.47,1.82l-9404.63 2579.67c-1.36,0.37 -2.75,0.72 -4.16,0.99l-259.79 71.37c-14.65,3.78 -29.43,5.67 -43.5,5.67z"/>
   <polygon class="fil0" points="5725.89,10244.23 5257.24,10155.9 9373.11,9026.92 9813.82,9122.92 "/>
   <path class="fil0" d="M11875.74 8557.47l-680.43 186.47c0,0 168.24,-78.29 166.43,-262.65l458.7 -125.82c55.57,-14.94 113.25,17.64 128.49,73.22 15.24,55.89 -17.64,113.26 -73.19,128.79z"/>
   <path class="fil0" d="M1790.11 11323.9l-243.54 66.94c-17.04,-26.3 -30.48,-57.07 -37.65,-93.23 -7.76,-40.34 -10.16,-77.68 -9.26,-111.15l152.7 -41.83c-56.19,51.11 -44.23,198.11 137.75,179.28z"/>
   <path class="fil1" d="M11381.78 16458.44l-251.02 145.84 -338.54 -368.74c0,-0.01 -757.79,-176 -1626.16,-361.56 -931.99,-199.62 -1991.29,-409.67 -2377.95,-425.2 -348.73,-1095.77 -567.76,-2619.74 -567.76,-4452.37 0,-1832.63 189.14,-3426.52 189.14,-3426.52 0.01,-0.01 -587.46,-2111.4 -512.77,-3376.59 0.01,-0.01 124.62,1023.12 288.67,1648.56 498.13,1897.46 826.83,2718.31 1207.82,3338.94 0,0 -308.07,2048.99 1308.81,4495.67 595.24,900.93 1451.34,1855.64 2679.77,2781.96z"/>
   <path class="fil0" d="M11381.78 16458.44l-251.02 145.84 -338.54 -368.74c0,-0.01 -757.79,-176 -1626.16,-361.56 -398.31,-350.52 -549.82,-873.45 -530.07,-1321.64 23.88,193.02 240.82,631.99 254.58,659.47 -10.18,-33.76 -231.92,-772.14 -188.56,-1535.32 595.24,900.93 1451.34,1855.64 2679.77,2781.96z"/>
   <path class="fil0" d="M6832.63 15391.3c434.84,28.68 1507.84,244.75 2345.95,424.23 858.9,183.58 1619.56,360.03 1627.14,361.78 11.73,2.75 22.37,8.96 30.5,17.81l306.08 333.34 131.93 -76.62c-1085.71,-829.48 -1967.6,-1751.78 -2622.09,-2742.41 -841.23,-1272.94 -1154.94,-2436.94 -1269.97,-3189.26 -112.1,-733.28 -64.38,-1218.6 -51.04,-1326.26 -355.86,-584.49 -683.32,-1355.16 -1203.57,-3336.88 -37.63,-143.5 -73.29,-308.41 -105.87,-477.32 141.03,1071.32 441.18,2159.06 445.37,2174.16 2.09,7.5 2.68,15.34 1.77,23.09 -1.88,15.89 -188.73,1611.65 -188.73,3419.45 0.01,1720.03 190.99,3238.38 552.53,4394.9zm4298.17 1272.72c-16.32,0 -32.39,-6.62 -44.07,-19.33l-326.06 -355.11c-120,-27.75 -822.49,-189.46 -1607.12,-357.14 -862.06,-184.68 -1972.62,-408.11 -2367.87,-423.96 -25.12,-1.03 -46.94,-17.64 -54.54,-41.61 -373.29,-1172.91 -570.58,-2718.73 -570.58,-4470.47 0,-1733.41 171.16,-3272.81 188.24,-3421.86 -46.27,-169.67 -583.34,-2172.24 -511.74,-3384.78 1.82,-30.87 26.9,-55.25 57.81,-56.21 30.6,-1.35 57.43,21.81 61.17,52.51 1.25,10.18 126.01,1026.35 287.17,1640.64 521.9,1988.09 846.43,2745.4 1200.9,3322.85 7.37,11.99 10.25,26.21 8.17,40.12 -3.01,20.29 -284.48,2056.81 1299.57,4453.91 661.31,1000.91 1558.27,1931.93 2665.93,2767.17 16,12.05 24.86,31.31 23.65,51.31 -1.18,19.95 -12.32,38.03 -29.61,48.09l-251 145.82c-9.37,5.45 -19.75,8.07 -30,8.07z"/>
   <path class="fil0" d="M6999.32 15188.72c153.64,-691.33 124.94,-1704.65 124.94,-1704.65 0,0 -149.43,1404.43 -403.32,1742.7l67.16 222 74.68 5.65c-1.47,2.72 -2.48,4.56 -2.48,4.56l122.95 6.62c140.39,-192.29 427.35,-963.08 507.05,-1543.3 -94.69,424.47 -335.99,952.82 -490.98,1266.42z"/>
   <path class="fil0" d="M8404.16 14474.84c3.05,51.62 12.32,101.7 23.29,151.61 10.45,49.91 23.16,99.35 36.02,148.64 26.53,98.39 55.67,196.04 88.52,292.3 15.83,48.33 33.29,96.04 51.6,143.36 17.64,47.59 37.69,94.19 58.35,140.37 21.32,45.88 43.77,91.25 70.37,134.09 26.16,43.23 56.77,83.59 97.68,115.44 -48.04,-20.45 -87.79,-58.32 -121.43,-98.22 -33.49,-40.59 -62.47,-84.52 -88.13,-130.04 -51.72,-91.01 -90.95,-187.8 -125.04,-285.89 -32.38,-98.68 -59.65,-199.01 -77.26,-301.42 -9.2,-51.08 -15.78,-102.7 -19.61,-154.6 -3.02,-51.75 -4.51,-104.58 5.64,-155.63z"/>
   <path class="fil1" d="M10346.99 15792.1l97.41 73.01 93.18 65.73c31.51,21.47 62.96,43.55 94.88,66.91 31.92,23.55 63.89,48.07 96.25,78.52 -44.55,4.85 -87.15,-3 -127.78,-15.48 -40.51,-12.96 -79.11,-31.97 -114.49,-56.34 -35.23,-24.59 -66.89,-55.28 -92.57,-90.54 -25,-35.85 -43.36,-77.6 -46.88,-121.82z"/>
   <path class="fil0" d="M6808.02 12943.68c42.15,131.12 62.05,268.55 73.92,405.02 6.7,68.37 8.93,136.96 11.56,205.49 1.67,68.58 0.71,137.1 -0.13,205.66 -3.46,137.03 -15.13,273.74 -33.22,409.57 -18.28,135.78 -43.53,270.83 -82.03,402.81 1.57,-137.45 7.24,-273.16 12.32,-408.77l13.37 -406.15c2.52,-67.6 3.78,-135.23 5.06,-202.88l3.44 -203.04c1.3,-135.56 1.22,-270.53 -4.3,-407.72z"/>
   <polygon class="fil0" points="6466.87,7553.22 6773.15,8822.53 6352.1,7586.53 "/>
   <path class="fil0" d="M10896.88 16277.98c-4.54,0 -9.1,-0.41 -13.72,-1.24l-4304.65 -799.36c-40.55,-7.54 -67.35,-46.52 -59.79,-87.08 7.51,-40.56 46.42,-67.3 87.08,-59.79l4304.63 799.33c40.55,7.5 67.35,46.49 59.81,87.08 -6.67,35.92 -38.08,61.07 -73.36,61.07z"/>
   <path class="fil0" d="M2442.26 4890.41c-52.41,0 -100.51,-34.75 -115.15,-87.72 -17.58,-63.66 19.75,-129.47 83.38,-147.07l7081.91 -1957.25c63.67,-17.54 129.43,19.78 147.04,83.38 17.6,63.64 -19.75,129.47 -83.38,147.04l-7081.9 1957.24c-10.65,2.96 -21.37,4.37 -31.91,4.37z"/>
   <path class="fil0" d="M9524.15 2709c-9.17,0 -18.5,1.23 -27.8,3.78l-7081.88 1957.24c-26.93,7.43 -49.35,24.93 -63.12,49.24 -13.78,24.29 -17.28,52.51 -9.83,79.43 12.49,45.19 53.91,76.77 100.74,76.77 9.39,0 18.78,-1.3 27.93,-3.8l7081.89 -1957.25c26.94,-7.46 49.36,-24.92 63.15,-49.23 13.77,-24.3 17.25,-52.5 9.81,-79.43 -12.78,-46.27 -55.04,-76.74 -100.89,-76.75zm-7081.89 2196.34c-60.23,0 -113.49,-40.58 -129.54,-98.68 -19.73,-71.48 22.33,-145.69 93.8,-165.44l7081.92 -1957.26c71.5,-19.72 145.64,22.41 165.41,93.81 9.58,34.61 5.08,70.89 -12.63,102.14 -17.69,31.26 -46.54,53.71 -81.17,63.28l-7081.91 1957.24c-11.71,3.23 -23.8,4.91 -35.88,4.9z"/>
   <path class="fil1" d="M10015.28 5879.2l-159.26 47.2c0,0 -365.76,-75.59 -946.96,-121.88 -198.42,-15.86 -422.21,-28.42 -664.84,-33.18l-0.29 -0.01c-794.83,-15.55 -1794.7,50.18 -2790.65,344.52 -43.33,12.85 -86.05,25.71 -128.49,39.16 -0.59,-0.01 -0.88,0.29 -1.5,0.29 -2079.46,649.93 -3119.92,1841.31 -3144.12,1869.08 -0.3,0.29 -0.3,0.3 -0.3,0.3 -16.73,-276.4 3.28,-571.61 46.9,-868.63 188.26,-1283.72 817.26,-2603.59 817.26,-2603.59l5776.41 -1596.28c0,0 -21.84,360.68 254.58,1361.71 73.81,267.73 175.7,504.11 285.06,706.71 299.73,554 656.21,854.61 656.21,854.6z"/>
   <path class="fil0" d="M8243.93 5771.34c-794.83,-15.55 -1794.7,50.18 -2790.65,344.52 -43.33,12.85 -86.05,25.71 -128.49,39.16 -0.59,-0.01 -0.88,0.29 -1.5,0.29 -2079.46,649.93 -3119.92,1841.31 -3144.12,1869.08 -0.3,0.29 -0.3,0.3 -0.3,0.3 -16.73,-276.4 3.28,-571.61 46.9,-868.63 386.98,-1083.22 1238.31,-1954.57 2112.03,-2437.44 -705.79,522.02 -1255.03,1011.19 -1575.95,1877.45 35.87,-16.73 2750.61,-1295.37 5482.08,-824.73z"/>
   <path class="fil1" d="M5323.29 6155.3c-2079.46,649.93 -3119.92,1841.32 -3144.12,1869.09 6.27,-13.75 209.17,-457.17 375.6,-633.78 169.45,-179.28 1463,-996.25 2768.53,-1235.3z"/>
   <path class="fil0" d="M3085.55 4602.72c-85.97,186.31 -629.83,1397.27 -800.64,2561.99 -37.8,257.37 -55.13,497.26 -51.7,715.19 308.84,-312.59 1329.8,-1237.01 3072.26,-1781.61l9.65 -2.9c40.05,-12.62 80.33,-24.7 121.16,-36.83 846.41,-250.1 1791.39,-366.88 2808.8,-346.99 221.22,4.34 446.11,15.56 668.77,33.35 513.26,40.9 864.34,105.47 939.3,120l44.68 -13.26c-123.79,-121.59 -371.38,-392.12 -591.29,-798.62 -124.59,-230.75 -222.17,-472.71 -290.16,-719.27 -206.81,-749.08 -248.27,-1142.8 -255.66,-1299.35l-5675.17 1568.3zm-958.03 3557.82l-8.32 -132.24c-15.86,-262.18 0.08,-558.57 47.45,-880.94 187.38,-1277.83 816.12,-2607.32 822.43,-2620.62l11.75 -24.62 5883.31 -1625.81 -5.03 83.5c-0.19,3.39 -16.39,368.24 252.52,1342.2 65.59,237.89 159.78,471.45 280.05,694.19 290.92,537.8 638.67,834.42 642.15,837.34l84.75 71.46 -279.93 82.99 -14.73 -3.02c-3.6,-0.77 -369.46,-75.44 -939.6,-120.89 -220.28,-17.6 -442.77,-28.68 -661.29,-32.97 -1005.17,-19.56 -1938.25,95.44 -2772.8,342.08 -42.94,12.73 -85.29,25.47 -127.37,38.8l-9.99 2.96c-2038.44,639.38 -3065.86,1799.59 -3108.65,1848.73l-2.82 2.98 -93.89 93.91z"/>
   <path class="fil0" d="M2933.38 6371.66c150.87,-218.52 317.02,-424.44 491.64,-623.7 174.28,-199.55 362.66,-387.08 560.3,-564.74 197.47,-177.75 407.05,-343.2 629.59,-489.27 222.94,-144.99 459.09,-271.49 708.38,-361.12 -231.57,128.05 -451.36,271.76 -659.97,430.04 -209.19,157.39 -407.49,328.37 -599.82,506.03 -192.24,177.96 -375.84,365.19 -562.65,550.27 -186.52,185.4 -370.76,374.07 -567.46,552.49z"/>
   <path class="fil0" d="M10015.28 5879.2l-159.26 47.2c0,0 -365.76,-75.59 -946.96,-121.88 -484.95,-186.78 -1471.07,-276.42 -1471.07,-276.42 0.01,-0.01 918.89,-75.3 1195.26,-37.67 -448.2,-126.69 -911.36,-208.85 -911.36,-208.85 0.01,0 721.01,-37.37 1214.08,85.76 -325.13,-182.88 -795.77,-280 -795.77,-280 0.01,-0.01 780.83,40.94 1094.6,171.82 -112.37,-138.04 -31.09,-319.73 124.27,-234.57 299.73,554 656.21,854.61 656.21,854.6z"/>
   <polygon class="fil0" points="2960.22,4646.13 4748.68,4228.23 2991.18,4761.59 "/>
   <polygon class="fil0" points="8842.92,3165.32 7510.23,3501.14 8808.69,3050.78 "/>
   <path class="fil1" d="M10289.3 18436.91l-42.43 22.42c-74.71,620.05 -560.28,2666.92 -560.28,2666.92 0,0 -1941.1,153.59 -3844.26,233.68 -1774.38,74.98 -3515.27,86.34 -3621.05,-149.1 -219.32,-487.97 -323.91,-1394.27 -323.91,-1394.27l-43.32 -29.61c-5.38,-3.56 -8.07,-5.35 -8.07,-5.35l-87.86 -59.77c-74.69,-244.13 -49.9,-627.52 -49.9,-627.52l530.4 0 -7.48 -507.97 3578.31 -149.42 -14.95 268.94 679.82 -7.48c0,0 144.32,77.12 1080.82,-430.87 936.19,-507.99 2599.68,-507.99 2599.68,-507.99l134.46 677.41z"/>
   <path class="fil0" d="M3028.46 19628.46c211.2,217.85 863.61,287.58 1192.31,242.76l490.55 393.43 -198.37 45.69c0,0 -1033.03,172.14 -1943.78,-203.23 -410.85,-144.37 -776.08,-349.8 -811.04,-385.29 0,0 -87.25,-321.25 -49.9,-627.52l530.4 0 -7.48 -507.97 184.27 0c0,0 189.25,214.12 159.37,333.67 62.25,-9.97 117.03,34.87 64.75,82.17l0 146.92 211.65 0c0,0 -19.93,-224.09 -22.4,-306.29 -2.48,-82.19 122.01,-69.73 119.54,-2.5 -2.5,67.26 -7.48,311.29 -7.48,311.29l229.09 0c0,0 64.75,-159.36 124.52,-174.32 59.75,-14.95 1347.16,37.36 1347.16,37.36 0.01,0 63.87,-52.31 129.04,-52.31 65.2,0 1145.92,-19.9 1145.92,-19.9 0.01,0 49.83,-163.46 176.81,-239.86 0,0 410.68,22.3 554.92,-24.9l0.01 18.25c0,0 -1370.77,791.04 -2127.01,933.39 -756.21,142.31 -1143.76,154.85 -1492.83,-0.83z"/>
   <path class="fil1" d="M2417.92 19169.01l0 117.03c0,0 -239.05,-37.34 -403.41,24.91 181.79,151.88 901.42,567.76 1177.84,607.61 -525.43,-29.89 -1304.83,-316.27 -1484.12,-824.25 0,0 326.2,59.79 507.98,59.79 181.78,0 201.7,-2.5 201.7,-2.5l0.01 17.42z"/>
   <path class="fil0" d="M5055.55 20494.55l786.79 865.38c-1774.38,74.98 -3515.27,86.34 -3621.05,-149.1 -219.32,-487.97 -323.91,-1394.27 -323.91,-1394.27l-43.32 -29.61c81.87,52.02 767.35,471.56 1818.29,555.22 1121.16,89.34 1920.49,-311.36 1920.49,-311.36l454.18 -178.7 75 49 -1066.47 593.44z"/>
   <path class="fil1" d="M1897.48 19854.95c121.1,78.52 247.74,144.86 376.68,206.49 129.25,60.85 260.65,117.01 394.4,166.96 133.52,50.4 269.35,94.51 407.02,131.71 137.95,36.21 277.7,65.88 421.8,75.1 -143.98,15.77 -290.5,-1.38 -432.4,-29.71 -142.4,-28.54 -281.5,-70.98 -417.43,-121.21 -135.34,-51.77 -267.84,-111.22 -394.6,-181.52 -126.48,-70.15 -249.36,-149.57 -355.48,-247.84z"/>
   <path class="fil0" d="M9214.95 19098.74l-378.42 2089.78 850.06 -62.27c0,-0.01 441.87,-1771.83 507.3,-2332.7 9.82,-84.18 59.95,-231.5 45.49,-278.21 -81.68,-264.32 -541.87,85.9 -541.87,85.9l-482.57 497.49z"/>
   <path class="fil1" d="M10239.4 18515.35c-160.62,93.39 -489.3,592.1 -257.73,684.53l-44.78 833.63c0,0 302.5,-1312.71 302.51,-1518.16z"/>
   <path class="fil0" d="M6501.74 18645.27c0.05,0.02 0.07,0.03 0.12,0.05 -0.04,-0.03 -0.07,-0.02 -0.12,-0.05zm0.17 0.07c0.05,0.06 0.1,0.08 0.15,0.1 -0.05,-0.03 -0.1,-0.05 -0.15,-0.1zm0.19 0.1c0.05,0.02 0.1,0.1 0.19,0.12 -0.1,-0.02 -0.15,-0.1 -0.19,-0.12zm0.19 0.12c0.08,0.03 0.13,0.05 0.19,0.13 -0.07,-0.08 -0.12,-0.1 -0.19,-0.13zm-4692.78 1038.95l121.57 82.68c14.31,9.76 23.67,25.27 25.66,42.5 1.04,8.98 106.09,902.85 319.05,1376.63 9.62,21.42 109.35,129.47 1131.83,155.73 595.34,15.34 1413.6,1.2 2432.18,-41.81 1724.16,-72.58 3500.62,-207.16 3798.63,-230.2 69.81,-296.42 481.59,-2057.44 549.11,-2617.87 2.34,-19.46 14.06,-36.53 31.43,-45.69l3.02 -1.62 -116.1 -584.99c-280.69,5.18 -1699.18,53.54 -2522.26,500.12 -791.81,429.52 -1041.14,453.38 -1116.17,438.24l-672.28 7.39c-16.41,0.24 -32.42,-6.5 -43.85,-18.42 -11.43,-12 -17.39,-28.15 -16.48,-44.69l11.29 -203.16 -3454.38 144.25 6.63 449.84c0.24,15.97 -5.97,31.43 -17.19,42.81 -11.23,11.41 -26.57,17.84 -42.57,17.84l-473.14 0c-3.34,108.94 -4.31,354.32 44.04,530.42zm2108.89 1783.06c-186.25,0 -357.66,-2.01 -513.85,-6.04 -1012.85,-26 -1194.08,-128.95 -1237.78,-226.22 -201.79,-448.95 -305.91,-1226.79 -325.49,-1384.73l-116.78 -79.35c-11.25,-7.68 -19.55,-18.94 -23.54,-31.94 -77,-251.69 -53.42,-632.75 -52.38,-648.82 2.04,-31.46 28.12,-55.95 59.64,-55.95l469.74 0 -6.57 -447.33c-0.47,-32.34 24.92,-59.23 57.26,-60.58l3578.33 -149.43c16.75,-0.56 33.19,5.77 45.02,17.77 11.85,11.97 18.08,28.43 17.12,45.29l-11.39 205.15 615.92 -6.77c7.39,0.32 14.38,1.18 21.1,3.58 17.55,2.97 209.85,18.63 1031.87,-427.24 938.72,-509.37 2559.65,-515.23 2628.2,-515.23 28.52,0 53.05,20.17 58.62,48.11l134.48 677.41c5.13,25.94 -7.37,52.17 -30.72,64.51l-14.94 7.9c-85.44,648.95 -538,2560.04 -557.56,2642.41 -5.96,25.22 -27.55,43.7 -53.44,45.76 -19.4,1.54 -1963.97,154.6 -3846.44,233.8 -754.47,31.9 -1399.72,47.94 -1926.43,47.94z"/>
   <path class="fil0" d="M3938.12 20411.62c-682.85,0 -1352.31,-176.87 -2067.81,-541.92l54.35 -106.46c1890.68,964.72 3226.53,469.94 4907.36,-334.37 1682.12,-804.93 2481.52,-908.69 3407.14,-1028.82l15.43 118.53c-915.48,118.8 -1706.12,221.41 -3370.97,1018.06 -783.5,374.98 -1554.96,720.94 -2378.23,835.15 -190.91,26.45 -379.62,39.82 -567.27,39.82z"/>
   <path class="fil0" d="M10182.79 17986.11c-251.69,21.71 -503.26,28.31 -752.42,40.42 -124.65,5.98 -248.45,13.46 -371.71,25.62 -61.43,6.74 -122.71,14.55 -183.9,23.06 -60.58,11.13 -122.28,17.94 -182.5,31.82 -242.22,48.73 -481.44,121.73 -716.93,209.58 -59.25,20.88 -117.41,44.98 -176.05,67.99 -58.88,22.42 -117.41,45.98 -175.73,70.2 -117.23,47.03 -232.8,98.17 -349.9,146.45 108.99,-64.35 218.26,-128.35 329.46,-189.12 110.36,-62.44 223.03,-120.93 337.4,-176.68 228.21,-111.98 465.27,-212.53 714.09,-283.32 248.34,-72.87 505.27,-113.21 759.41,-140.22 254.64,-25.59 508.06,-37.34 761.1,-34.82l7.69 209.02z"/>
   <path class="fil0" d="M10220.41 18157.91c-251.13,23.6 -502.28,31.5 -751.02,43.97 -62.47,2.25 -123.96,7.55 -186.13,10.52 -62,3.46 -123.27,10.01 -185.07,14.84 -122.63,13.54 -244.96,29.54 -366.08,53.27 -242.24,46.79 -481.83,116.52 -717.94,200.9 -59.42,19.94 -117.67,43.43 -176.56,65.41 -59.05,21.46 -117.69,44.28 -176.21,67.52 -117.62,45.17 -233.51,94.76 -350.99,141.31 109.56,-62.72 219.35,-125.23 331.14,-184.24 110.93,-60.81 224.16,-117.46 338.91,-171.63 229.12,-108.57 466.67,-205.76 715.12,-274.41 247.99,-70.61 503.84,-111.15 757.1,-138.09 253.73,-25.91 506.12,-38.96 758.36,-38.35l9.38 208.97z"/>
   <path class="fil0" d="M10258 18329.69c-250.51,25.59 -501.3,34.82 -749.7,47.57 -62.3,2.55 -123.76,7.66 -185.86,10.53 -61.77,4.02 -123.19,9.56 -184.83,14.67 -122.45,13.33 -244.8,28.39 -365.83,51.36 -242.26,44.83 -482.25,111.32 -718.93,192.26 -59.59,18.99 -117.92,41.91 -177,62.82 -59.25,20.53 -117.99,42.66 -176.71,64.95 -117.99,43.35 -234.17,91.4 -352.01,136.19 110.14,-61.07 220.4,-122.11 332.76,-179.4 111.47,-59.18 225.24,-114.01 340.36,-166.59 230,-105.29 468.05,-199.16 716.12,-265.63 247.65,-68.19 502.59,-108.69 754.94,-135.71 252.79,-26.16 504.21,-40.53 755.61,-41.88l11.07 208.87z"/>
   <path class="fil0" d="M10295.63 18501.46c-249.92,27.65 -500.39,38.2 -748.47,51.2l-185.66 10.52c-61.54,4.52 -123.17,8.91 -184.57,14.56 -60.99,7.18 -122.75,11.58 -183.33,21.22l-91.42 12.61c-30.45,4.3 -60.61,10.29 -90.96,15.34 -242.29,42.77 -482.6,106.04 -719.81,183.68 -59.67,18.26 -118.17,40.29 -177.42,60.29 -59.4,19.58 -118.26,41.03 -177.17,62.37 -118.28,41.56 -234.79,88.08 -352.95,131.16 110.65,-59.45 221.41,-119.07 334.27,-174.65 111.98,-57.61 226.3,-110.63 341.76,-161.69 230.84,-101.97 469.35,-192.56 717.13,-256.84 247.35,-65.66 501.42,-105.95 752.86,-133.11 251.89,-26.39 502.29,-42.05 752.88,-45.44l12.83 208.78z"/>
   <path class="fil0" d="M3727.67 19808.97c-604.14,0 -938.07,-227.64 -955.57,-239.89l68.56 -97.95c4.93,3.46 516.04,348.34 1410.27,162.3 806.12,-167.68 1703.27,-639.89 2239.3,-922.03 80.41,-42.33 153.32,-80.72 217.39,-113.62l54.6 106.34c-63.74,32.76 -136.3,70.93 -216.31,113.04 -541.6,285.08 -1448.06,762.2 -2270.64,933.27 -201.56,41.95 -384.47,58.54 -547.59,58.54z"/>
   <path class="fil0" d="M9654.46 18590.28c-98.85,60.06 -191.28,117.94 -277.09,186.99 -85.23,68.92 -167.38,144.41 -241.75,230.88 -74.7,85.97 -143.9,179.72 -210.15,277.16 -67.08,97.06 -131.8,197.54 -199.19,298.43 85.73,-222.35 182.26,-443.29 321.54,-642.79 69.71,-99.3 151.22,-192.29 246.53,-271.64 95.03,-79.52 203.8,-144.41 319.78,-191.55l40.31 112.52z"/>
   <path class="fil0" d="M9852.44 18590.28c-101.09,63.03 -193.08,141.69 -281.85,228.43 -87.84,87.22 -174.84,179.18 -255.32,278.01 -80.23,99 -156.47,202.54 -226.84,310.67 -70.7,108.1 -137.52,219.28 -190.32,341.37 26.65,-128.81 75.33,-252.65 131.49,-372.04 56.7,-119.37 122.53,-234.59 196.28,-345.07 74.47,-109.95 156.73,-215.43 251.1,-311.88 94.81,-95.44 200.76,-185.27 335.11,-242.02l40.34 112.52z"/>
   <path class="fil0" d="M8102.86 19770.38c11.22,-175.58 97.11,-332.44 220.38,-339.92 123.26,-7.46 224.1,280.15 168.09,657.41 -56.04,377.24 -351.13,302.55 -351.13,302.55 0.01,0 93.39,-7.48 183.04,-138.21 -104.58,-205.44 -44.83,-646.2 -44.83,-646.2 0.01,0 -85.89,7.48 -175.55,164.37z"/>
   <path class="fil0" d="M4861.42 20446.32c245.51,-141.53 495.3,-256.52 747.46,-365.19 252.35,-107.54 506.67,-207.43 763.36,-299.53 -235.52,137.18 -466.57,281.21 -692.32,430.98 -224.87,150.31 -446.19,307.28 -645.56,477.41l-172.93 -243.66z"/>
   <path class="fil0" d="M4977.16 20627.78c245.14,-133.75 494.54,-238.54 746.25,-335.43 251.93,-95.57 505.71,-182.4 761.88,-259.74 -237.21,123.39 -469.46,255.22 -695.93,393.8 -225.48,139.24 -446.67,286.45 -644.65,448.78l-167.55 -247.42z"/>
   <path class="fil0" d="M5092.92 20809.32c122.53,-63.25 246.04,-118.12 370.19,-168.78 124.5,-49.62 249.56,-95.05 375.11,-137.55 251.54,-83.59 504.73,-157.16 760.12,-219.33 -238.86,109.13 -472.32,228.6 -699.49,355.87 -113.21,64.28 -224.57,130.85 -333.05,200.21 -107.78,70.22 -212.55,143.34 -310.74,220.57l-162.13 -251z"/>
   <path class="fil0" d="M5208.68 20990.96c122.53,-59.62 245.96,-110.51 370.07,-156.39 124.45,-44.63 249.26,-84.99 374.69,-121.43 251.08,-71.77 503.62,-131.85 757.96,-178.47 -240.43,94.44 -475.16,201.24 -702.95,317.39 -113.65,58.55 -225.02,120.33 -333.47,184.88 -107.73,65.66 -211.94,134.88 -309.6,208.44l-156.7 -254.41z"/>
   <path class="fil0" d="M5324.44 21172.65c122.68,-56.07 246.12,-103.37 370.26,-144.4 124.47,-39.85 249.12,-75.15 374.4,-105.55 125.35,-30.06 250.92,-56.53 376.82,-79.45 125.92,-22.72 252.06,-42.62 378.54,-57.54 -121.09,39.23 -240.25,83.08 -358.13,129.41 -117.77,46.47 -233.95,96.15 -348.11,148.68 -114.06,52.88 -225.51,109.88 -333.88,169.86 -107.78,61.02 -211.45,126.63 -308.61,196.68l-151.29 -257.7z"/>
   <path class="fil0" d="M5440.22 21354.44c122.92,-52.73 246.47,-96.58 370.81,-132.84 124.57,-35.16 249.16,-65.53 374.3,-89.8 125.16,-24.22 250.39,-44.26 375.79,-60.16 125.38,-15.73 250.88,-28.2 376.38,-34.89 -121.59,31.31 -241.38,68.06 -359.77,107.71 -118.31,39.85 -234.95,83.42 -349.46,130.43 -114.48,47.09 -226.02,99.42 -334.37,154.94 -107.91,56.47 -211.04,118.73 -307.8,185.39l-145.87 -260.79z"/>
   <path class="fil1" d="M2163.92 20192.47c83.1,58.03 169.03,108.16 258.34,151.22 89.42,42.62 181.48,79.22 275.86,109.11 94.07,30.89 190.4,55.08 287.76,76.11 97.5,20.66 196.19,36.83 296.32,52.48 -100.97,9.2 -202.98,5.89 -303.95,-6.48 -101.11,-12.03 -201.07,-34.4 -298.48,-65.27 -97.01,-31.97 -191.69,-72.46 -279.53,-125.04 -87.83,-52.16 -169.7,-115.56 -236.32,-192.14z"/>
   <path class="fil0" d="M4211.2 20117.81c254.07,21.2 514.25,9.06 771.26,-25.71 257.19,-35.38 512.58,-94.07 759.78,-181.03 -237.88,110.07 -488.93,193.79 -746.11,254.46 -257.43,60.04 -521.38,98.29 -790.69,101.58l5.77 -149.3z"/>
   <path class="fil0" d="M4173.12 20038.9c251.93,9.42 509.39,-17.86 762.5,-64.53 253.28,-47.7 504.11,-115.98 745.61,-212.28 -231.3,118.99 -476.7,212.06 -728.34,284.95 -125.99,36.24 -253.8,67.16 -383.47,91.54 -129.72,24.29 -261.26,42.2 -395.23,49.71l-1.08 -149.4z"/>
   <path class="fil0" d="M4135.26 19960.14c124.79,-0.32 251.34,-11.48 377.36,-29.08 126.12,-17.67 251.86,-42.37 376.6,-72.01 124.77,-29.76 248.57,-64.7 370.81,-105.13 122.17,-40.58 242.86,-86.42 360.19,-140.81 -111.54,65.43 -228.01,123.07 -346.74,175.65 -118.82,52.45 -240.13,99.74 -363.45,142.04 -123.36,42.18 -248.69,79.67 -376.38,110.31 -127.71,30.57 -257.62,55.01 -390.9,68.24l-7.48 -149.2z"/>
   <path class="fil0" d="M4097.58 19881.5c124.06,-5.25 249.68,-22.13 374.34,-45.78 124.77,-23.7 248.92,-54.08 371.84,-89.53 122.92,-35.51 244.69,-76.07 364.5,-122.24 119.72,-46.4 237.81,-97.8 350.96,-159.88 -106.66,72.7 -220.11,135.78 -335.82,194.03 -115.91,58.05 -234.59,110.8 -355.47,158.77 -120.91,47.89 -244.06,91.03 -369.85,127.81 -125.82,36.66 -254.29,67.03 -386.96,85.61l-13.54 -148.79z"/>
   <path class="fil1" d="M4605.69 19245.02l-1555.28 41.02 24.91 258.98 1533.26 -239.1c-0.93,-20.32 -1.91,-40.6 -2.89,-60.9z"/>
   <path class="fil1" d="M5079.26 19232.51l-324.79 8.56c0.67,13.94 1.28,27.85 1.99,41.79l322.8 -50.35z"/>
   <path class="fil0" d="M4691.4 18715.81l-27.38 -89.66 816.77 -89.63 34.87 146.92 -824.25 32.37zm1103.12 -9.97l14.95 -268.94 -361.04 0 -1618.93 189.25 -27.01 -105.46 -129.77 5.45 55.01 177.2 181.78 44.85 657.39 -97.24 4.98 67.35c0,0 -109.31,139.54 -37.37,341.14 71.96,201.59 181.8,0 181.8,0l0 -259 1405.71 -29.86 0 -68.36 -327.51 3.61z"/>
   <path class="fil1" d="M14547.42 14432.79c-2081.82,1404.43 -3585.77,2689.35 -4701.56,3765.07 -101.6,8.39 -210.05,2.7 -305.4,-26l-1.18 -0.59c-128.49,-38.84 -232.5,-119.52 -261.18,-262.36 587.17,-596.73 1648.88,-1330.3 2682.77,-1977.56 1088.88,-682.2 2146.98,-1268.45 2586.55,-1498.55z"/>
   <path class="fil0" d="M9561.15 18115.66c74.15,21.76 163.19,30.03 258.82,24.17 1126.19,-1084.24 2358.23,-2103.6 3743.13,-3095.75 -459.43,262.21 -1009.48,586.43 -1570.51,937.93 -1231.71,771.03 -2146.24,1442.78 -2648.22,1944.97 28.44,90.19 99.66,153.06 212.2,187.11 1.55,0.44 3.05,0.98 4.57,1.57zm200.26 145.47c-71.94,0 -156.3,-7.43 -238.15,-32.07 -1.7,-0.47 -3.37,-1.08 -4.98,-1.69 -165.47,-51.16 -268.74,-157.15 -298.77,-306.7 -3.87,-19.44 2.11,-39.53 16,-53.69 510.25,-518.54 1416.52,-1186.82 2693.66,-1986.29 1111.47,-696.33 2180.52,-1286.24 2590.51,-1500.86 28.18,-14.79 62.81,-4.9 79.06,22.35 16.27,27.21 8.39,62.42 -17.91,80.14 -1781.64,1201.91 -3316.87,2431.35 -4693.48,3758.57 -9.93,9.54 -22.84,15.41 -36.58,16.54 -26.23,2.13 -56.48,3.7 -89.35,3.7z"/>
   <path class="fil0" d="M14547.42 14432.79c-2081.82,1404.43 -3585.77,2689.35 -4701.56,3765.07 -101.6,8.39 -210.05,2.7 -305.4,-26l-1.18 -0.59c0,0 1383.79,-1303.41 2421.59,-2239.92 1088.88,-682.2 2146.98,-1268.45 2586.55,-1498.55z"/>
   <path class="fil0" d="M5846.37 1372.44c30.71,36.54 44.33,76.19 53.51,116.76l25.37 122.1 54.65 243.45c38.3,161.86 76.35,323.79 118.46,484.77 40.23,161.4 84.8,321.73 128.17,482.31 45.37,160.04 90.19,320.24 138.04,479.58 190.18,637.63 401.8,1268.77 634.12,1891.96 230.57,623.85 481.59,1239.99 753.95,1846.36 271.13,606.9 564.06,1204.02 880.33,1788.31 315.31,584.71 653.44,1157.33 1021.39,1710.12 366.43,553.67 758.13,1090.59 1179.25,1603.54 417.7,515.76 871.07,1002.38 1353.32,1458.01 60.15,57.09 119.2,115.5 180.29,171.55l186.82 164.36 186.85 164.44 46.74 41.13c15.82,13.39 32.24,26.08 48.31,39.16l97.02 77.92 194.05 155.92c64.72,51.89 128.61,104.99 196.65,152.54l201.2 146.6 100.62 73.36 50.33 36.65 25.15 18.33c3.89,3.46 8.97,5.22 11.94,10.06 2.53,5.54 -0.19,18.77 -11.87,45.17 -20.12,20.34 -31.31,27.48 -37.29,26.96 -5.49,-1.2 -8.88,-5.52 -13.42,-8.12l-25.64 -18.03 -51.28 -36.09 -102.59 -72.19 -205.19 -144.42c-69.39,-46.81 -134.61,-99.19 -200.74,-150.42l-198.2 -153.89 -99.1 -77c-16.46,-12.93 -33.2,-25.46 -49.39,-38.69l-47.77 -40.65 -191.13 -162.63 -191.16 -162.72c-62.54,-55.52 -123.02,-113.35 -184.64,-169.93 -492.53,-453.11 -954.05,-940.21 -1380.92,-1455.58 -426.34,-515.85 -824.03,-1054.97 -1194.03,-1612.18 -370.22,-557.17 -710.32,-1133.77 -1027,-1722.41 -315.89,-589.13 -608.04,-1190.7 -878.18,-1801.76 -268.86,-611.68 -515.32,-1232.95 -740.24,-1861.78 -223.01,-629.5 -424.91,-1266.27 -605.2,-1909.01 -45.37,-160.58 -87.72,-322.05 -130.55,-483.3 -40.87,-161.82 -82.93,-323.3 -120.64,-485.89 -39.55,-162.12 -75.08,-325.23 -110.86,-488.22l-50.81 -245.16 -23.43 -123.01c-7.07,-41.14 -9.72,-83.18 4.76,-128.33z"/>
   <path class="fil0" d="M8891.01 12385.92c-11.36,125.03 -31.39,248.84 -55.67,371.77 -24.02,123 -53.81,244.82 -87.38,365.71 -34.71,120.56 -73.01,240.4 -121.45,356.72 -48.39,115.68 -103.62,231.49 -183.72,328.9 58.99,-110.76 100.15,-227.62 140,-345.17 38.89,-117.8 74.3,-236.94 107.69,-356.75 34.45,-119.52 66.47,-239.81 99.62,-360.01 32.73,-120.38 65.26,-240.85 100.92,-361.17z"/>
   <path class="fil1" d="M7262.79 6061.35c-399.98,2034.53 -205.76,6324.57 675.73,8117.45 926.33,-14.95 4327.82,672.33 4327.82,672.33 0,0 -1668.71,-2228.73 -3252.25,-5193.19 -1583.56,-2964.47 -1751.31,-3596.58 -1751.3,-3596.58z"/>
   <path class="fil0" d="M7975.84 14118.8c863.42,2.57 3484.3,511.31 4151.26,643.56 -371.03,-510.53 -1807.9,-2534.36 -3165.73,-5076.26 -1119.79,-2096.35 -1532.36,-3025.73 -1679.27,-3395.46 -357.83,2160.79 -118.71,6129.63 693.74,7828.16zm4290.5 792.09c-3.9,0 -7.88,-0.39 -11.83,-1.2 -33.59,-6.77 -3333.82,-671.38 -4285.05,-671.38 -10.31,0 -20.22,0.08 -29.98,0.25 -23.65,-0.72 -44.41,-12.64 -54.6,-33.4 -863.4,-1756.13 -1099.88,-6023.34 -680.74,-8155.35 5.38,-27.31 28.88,-47.3 56.68,-48.21 28.32,-0.15 52.5,17.47 59.67,44.29 2.52,9.12 194.05,678.02 1746.31,3583.86 1563.03,2926.13 3230.73,5163.29 3247.39,5185.56 14.87,19.82 15.92,46.79 2.67,67.72 -11.09,17.56 -30.28,27.85 -50.51,27.84z"/>
   <path class="fil0" d="M7832.19 13942.51c71.47,-316.54 136.22,-1422.16 136.22,-1422.16 0.01,0 94.39,1399.2 19.8,1658.3l-49.68 0.14 -106.34 -236.28z"/>
   <path class="fil0" d="M8058.26 14180.22c70.74,-543.03 451.75,-1570.19 433.08,-1820.48 52.29,575.24 -21.32,1565.56 -372.96,1823.03l-60.11 -2.55z"/>
   <path class="fil0" d="M11729.03 14097.12c-432.56,-280.62 -1800.88,-705.21 -2838.03,-122.51 521.69,-104.6 656.14,-119.54 1268.72,149.39 612.56,268.94 1338.77,577.52 1338.77,577.52l767.85 149.6 -537.31 -754.01z"/>
   <path class="fil0" d="M8391.73 14034.35c308.76,-273.92 498.02,-443.24 1548.84,-488.04l-1548.84 488.04z"/>
   <path class="fil1" d="M11606.48 14335.67c164.34,114.56 351.1,209.17 331.18,271.42 -19.91,62.25 -146.89,12.46 -331.18,-271.42z"/>
   <path class="fil0" d="M7105.05 7525.26c0,0 288.14,1887.44 482.37,2462.66 -224.13,-1606.15 -251.52,-3331.78 -251.52,-3331.78 0.01,-0.01 273.92,1314.77 841.68,2405.46 0.01,-0.01 -492.31,-1547.28 -567.36,-2170.6l-347.42 -829.64c0,0 -175.19,933.4 -157.74,1463.91z"/>
   <path class="fil0" d="M13441.78 15194.8c-6.2,-0.01 -12.49,-0.79 -18.77,-2.43 -1727.04,-446.99 -5218.91,-935.05 -5716.5,-948.3 -41.24,-1.11 -73.78,-35.41 -72.67,-76.65 1.11,-41.22 36.76,-74.49 76.65,-72.7 501.27,13.35 4014.62,503.89 5749.92,953.05 39.97,10.33 63.99,51.08 53.63,91 -8.68,33.68 -39.03,56.04 -72.26,56.04z"/>
   <path class="fil0" d="M11405.04 8686.45l-110.22 972.88c-17.67,161.98 -36.58,323.7 -52.88,485.66 -7.7,81.01 -17.14,161.84 -25.64,242.73l-22.4 242.97c-8.9,80.87 -14.94,161.91 -21.98,242.93 -6.89,80.99 -13.99,162.01 -19.13,243.08l-18.01 243.17c-3.59,81.14 -8.23,162.26 -13.28,243.4 -14.74,324.73 -22.85,649.44 -11.17,976.6 -61.21,-321.89 -79.47,-651.1 -82.07,-978.7 -3.62,-328.15 18.99,-655.33 46.72,-981.54 30.55,-326.03 73.56,-650.59 127.83,-973.18 54.4,-322.53 117.85,-643.65 202.22,-960z"/>
   <path class="fil1" d="M4257.13 2725.8c0,0 -1674.86,133.27 -2601.19,578.81 242.64,-328.72 396.83,-446.13 666.96,-531.29l0.3 -0.01c137.16,-43.32 304.2,-78.58 527.98,-128.78 664.87,-149.4 1128.36,-248.32 1333.65,-725.53l41.51 461.67c0,0 0,0 0,0.3l30.79 344.83z"/>
   <path class="fil0" d="M2332.17 2833.08c-198.36,63.72 -328.28,146.61 -481.5,322.11 844.94,-331.12 2055.34,-457.56 2341.6,-483.75l-49.49 -552.91c-245.09,352.15 -680.67,450.01 -1254.81,579l-111.2 24.86c-178.42,39.78 -319.36,71.19 -435.57,107.92l-9.03 2.77zm-867.31 629.73l143 -193.7c245.52,-332.64 408.41,-461.79 697.05,-552.79l9.13 -2.76c119.26,-37.07 259.86,-68.42 436.71,-107.82l111 -24.84c648.78,-145.73 1077.37,-242 1268.16,-685.53l93.26 -216.83 98.83 1102.02 -60.14 4.79c-16.64,1.32 -1674.52,137.61 -2580.03,573.12l-216.98 104.34z"/>
   <path class="fil0" d="M4226.34 2380.67c0,0 0,0 0,0.3 -2.67,9.25 -68.43,207.08 -710.29,338.24 -657.09,134.48 -776.9,9.86 -1192.86,54.1 137.16,-43.33 304.2,-78.59 527.98,-128.79 664.87,-149.4 1128.36,-248.32 1333.65,-725.53l41.51 461.67z"/>
   <path class="fil0" d="M4920.48 1593.69c105.87,-56.35 217.53,-88.47 328.93,-121.71l333.95 -100.57 334.89 -96.72c111.79,-31.62 223.74,-62.49 336.04,-91.89 47.9,-12.56 96.89,16.11 109.46,64.02 12.54,47.91 -16.15,96.91 -64.04,109.46 -1.15,0.3 -2.62,0.64 -3.76,0.9 -113.47,24.54 -227.27,47.61 -341.26,69.95l-342.44 65.13 -343.33 61.29c-114.41,20.71 -228.5,42.54 -348.43,40.14z"/>
   <path class="fil0" d="M5470.77 699.73c-26.62,0 -50.88,-17.89 -57.83,-44.83 -8.24,-31.99 11,-64.57 42.94,-72.79l318.74 -82.19c31.92,-8.28 64.58,11 72.8,42.96 8.25,31.96 -10.99,64.56 -42.94,72.79l-318.74 82.16c-5,1.3 -10.04,1.92 -14.97,1.91z"/>
   <path class="fil0" d="M6119.72 6555.2c-9.79,19.95 -21.21,32.1 -33.08,42.04 -11.9,9.78 -24.51,16.16 -37.59,20.26l-78.44 24.82c-52.16,17.19 -104.97,31.37 -157.47,46.9 -105.58,28.38 -211.43,55.38 -319.36,72.41 -40.8,6.43 -79.1,-21.42 -85.53,-62.23 -6.03,-38.28 18.43,-74.42 55.11,-84.06 105.77,-27.41 213.63,-44.83 321.79,-60.87 54.32,-6.69 108.39,-14.7 163.09,-19.75l81.85 -8.49c13.62,-1.45 27.72,-0.61 42.54,3.63 14.84,4.36 30.15,10.97 47.09,25.34z"/>
   <path class="fil1" d="M10832.04 22201.97c498.05,-283.86 821.77,-662.36 821.77,-662.36 0,0 501.76,-77.17 628.76,31.14 59.74,-108.3 336.16,-242.79 571.49,-310.01 -717.18,-134.48 -840.42,-463.18 -732.1,-672.33 -504.26,41.05 -829.21,-313.79 -829.21,-313.79 0,0 -532.89,89.66 -547.83,-112.05 -14.95,-201.69 328.68,-181.76 328.68,-181.76 0,0 -37.34,-266.46 -301.3,-261.45 -263.96,4.98 -308.76,256.47 -410.85,331.18 -102.09,74.71 -306.31,99.59 -415.85,248.99 -144.44,-29.89 -458.18,-4.96 -458.18,-4.96 0,0 -49.83,-144.44 -186.79,-144.44 -149.37,186.77 -600.12,415.83 -600.12,415.83 -265.18,-119.52 -515.42,2.5 -617.54,29.89 -102.09,27.4 -134.46,2.5 -291.34,-104.55 -131.95,134.45 -256.5,119.52 -400.89,7.43 0.01,72.23 -44.85,211.67 -179.3,293.86 -134.45,82.15 -74.71,235.08 -74.71,235.08l-84.64 -65.76c-463.19,303.78 -1483.9,409.19 -1483.9,409.19l174.08 -237.38c-851.62,276.42 -1618.58,-395.94 -1618.58,-395.94 0,0 174.3,-179.26 149.4,-313.73 -881.5,702.21 -2051.87,786.88 -2076.84,728.14 -24.97,-58.74 -121.95,-379.93 -121.95,-379.93l-156.87 -99.2c-129.48,443.24 -692.25,622.54 -1115.58,557.77 -179.28,293.86 -458.18,418.36 -801.82,398.43l759.5 34.84c0,0 575.21,280.73 1165.38,282.3 590.14,1.59 1430.57,-68.82 1850.8,0 420.2,68.82 1692.03,382.58 2038.48,636.55 346.42,254 874.63,209.19 1249.24,52.29l691.64 -52.29 -167.6 231.6 864.69 -129.55c0,0 9.35,159.44 382.85,129.55 373.53,-29.89 991.07,-151.29 1339.68,-378.19 363.57,-40.14 657.39,-234.39 657.4,-234.39z"/>
   <path class="fil0" d="M-0 21629.24c157.67,-3.68 314.26,-33.39 448.79,-105.46 134.88,-71.18 242.06,-183.79 318.02,-314.3 8.29,-14.26 24.09,-21.42 39.48,-19.41l1.74 0.24c107.41,14.11 217.29,13.23 325.02,-1.82 107.81,-14.2 213.84,-42.74 312.81,-85.85 98.79,-43.14 190.75,-101.58 265.63,-176.34 75.09,-74.41 131.32,-166.06 160.07,-266.65 7.23,-25.25 33.54,-39.85 58.78,-32.63 4.35,1.25 8.39,3.04 12.05,5.32l0.55 0.35 157.14 98.73c10.11,6.33 17.03,15.85 20.29,26.43l0.13 0.42c32.28,104.99 64.85,210.56 99.39,313.91l13.21 38.03 6.62 17.6 1.62 4.1c0,0 0.49,1.27 0.18,0.42 -0.85,-2.14 -1.94,-4.3 -3.26,-6.33 -1.31,-2.04 -2.84,-3.95 -4.5,-5.65l-3.41 -3.19c-6.7,-5.18 -6.93,-4.27 -6.87,-4.44 4.11,1.28 17.3,3.21 28.84,3.87 12.05,0.86 24.97,1.08 37.9,1.11 52.1,-0.19 106.02,-4.49 159.56,-10.2 214.86,-24.29 428.47,-72.9 636.82,-135.14 416.15,-126.19 815.06,-318.4 1154.78,-588.08l0.67 -0.49c21.78,-17.3 53.48,-13.67 70.78,8.15 5.42,6.82 8.81,14.84 10.21,22.84 6.92,40.58 0.9,78.26 -8.69,111.88 -9.67,33.98 -24.17,63.99 -40.02,92.45 -15.87,28.54 -33.63,55.13 -52.68,80.46 -19.33,25.59 -38.43,49.02 -61.66,73.58l-2.92 -73.47c105.63,87.91 227.35,166.48 351.5,232.53 125.04,66.05 256.1,120.86 391.69,158.65 67.67,19.21 136.42,34.42 205.81,44.23 69.31,10.36 139.27,16.2 209.14,15.83 139.86,1.62 278.95,-21.69 412.08,-63.21l0.62 -0.19c25.49,-7.95 52.6,6.28 60.55,31.78 4.74,15.16 1.45,31.13 -7.21,43.06l-174.4 237.11 -43.62 -76.08c126.31,-13.87 253.99,-33.05 380.15,-54.79 126.34,-21.94 252.15,-47.11 376.36,-77.68 124.13,-30.52 247.64,-64.26 366.88,-107.76 119,-43.28 236.21,-92.89 340.26,-159.58l0.47 -0.29c16.78,-10.77 37.95,-9.12 52.82,2.43l84.6 65.88 -70.64 52.75c-11.53,-33.2 -15.63,-61.02 -16.1,-93.18 -0.15,-31.31 5.33,-63.99 18.53,-94.46 13.17,-30.23 33.44,-58.35 58.39,-78.76 5.81,-5.87 12.64,-9.67 19.02,-14.48l18.01 -12.37c9.61,-6.31 19.31,-12.53 28.14,-19.9 36.42,-27.99 66.41,-64.16 88.37,-104.69 21.71,-39.99 36.51,-87.03 37.34,-127.76l0.01 -0.79c0.51,-24.81 21.02,-44.48 45.83,-43.99 9.99,0.19 19.16,3.65 26.52,9.35 55.7,43.03 117.65,77.63 177.1,78.98 59.06,1.79 115.66,-33.69 163.9,-82.81 15.63,-15.93 40.22,-17.82 58,-5.72 33.08,22.42 65.98,45.26 98.29,65.7 32.4,20.27 63.75,37.76 90.05,40.19 26.33,3.37 61.57,-6.03 97.73,-18.08 37,-12.29 76.08,-25.78 115.88,-36.99 79.52,-22.97 164.05,-37.56 249.7,-36.21 85.61,1.69 172.1,19.77 250.88,55.01l-40.38 0.95c52.87,-27.38 106.23,-57.11 158.4,-87.34 52.31,-30.3 103.8,-61.91 154.11,-94.86 50.4,-32.8 99.64,-67.15 146.01,-103.91 46.11,-36.61 91.25,-75.45 125.48,-117.92l1.31 -1.57c9,-11.19 22.64,-16.81 35.99,-16.34 26.08,1.06 53.05,3.85 78.07,13.94 25.01,9.35 48.61,22.79 68.09,39.67 19.78,16.66 36.58,35.7 50.66,55.97 14.22,21.05 25.18,40.12 35.39,66.91l-49.27 -32.24c78,-5.77 154.77,-9.33 232.84,-10.04 38.95,-0.42 78,0 117.6,1.99 39.66,2.16 79.2,4.83 121.43,13.25l-49.17 18.89c42.22,-56.68 98.26,-100.55 156.27,-132.03 57.85,-32.51 117.99,-54.78 173.37,-78.34 27.53,-11.73 54.54,-23.53 77.17,-37.22 11.31,-6.85 21.71,-14.11 29,-21.13 8.19,-7.85 16.63,-17.12 24.83,-28.39 33.35,-43.84 63.94,-101.28 106.36,-153.02 41.74,-52.07 97.73,-101.61 166.13,-126.24 68.04,-25.07 138.36,-30.2 208.92,-18.62 8.86,1.69 17.71,3.12 26.53,5.13l26.01 8.61c17.64,4.91 33.7,14.4 50.22,22.55 31.53,18.77 61.16,41.91 84.01,69.93 23.43,27.51 42.74,57.91 56.92,89.85 14.48,32.73 25.15,63.11 31.83,101.97 4.61,26.89 -13.44,52.45 -40.36,57.07 -3.19,0.54 -6.38,0.79 -9.52,0.72l-3.28 -0.1c-76.19,-2.23 -163.59,6.9 -223.03,39.21 -29.59,16.73 -46.47,36.97 -50.81,62.81 -1,6.65 -1.65,13.64 -1.2,21.25 -0.24,4.15 0.63,6.52 1.03,9.32 0.15,2.9 0.79,5.47 1.93,7.73 3.25,9.59 9.57,18.1 20.59,26.69 22.51,17.07 59.6,28.76 97.46,35.21 38.35,6.63 78.95,9.33 119.97,9.67 81.76,0.69 166.87,-6.72 247.64,-19.11 17.35,-2.68 34.03,3.51 45.47,15.16l0.72 0.72c22.6,23.33 51.18,48.63 79.15,70.86 14.19,11.34 28.95,21.98 43.48,32.95l45.2 30.66c61.07,39.75 126.43,72.7 194.07,98.78 33.45,14.31 68.58,23.41 103.08,34.33 35.38,7.53 70.25,17.64 106.26,21.39 71.36,12.48 144,11.31 216.09,8.02l1.08 -0.05c28.63,-1.3 52.9,20.83 54.2,49.46 0.42,9.08 -1.65,17.94 -5.4,25.52 -17.93,35.97 -27.6,75.06 -28.33,114.51 -1.96,39.75 11.07,78.88 27.11,116.16 36.73,74 102.29,136.22 177.54,184.58 9.4,6.11 18.53,12.59 28.19,18.4l30.09 16.07c20.19,10.45 39.53,22.3 61.09,30.67l63.2 27.45 65.52 23.06 32.78 11.51 33.64 9.52 67.35 18.79c45.31,11.36 91.44,20.29 137.1,30.62l1.68 0.37c25.96,5.86 42.22,31.65 36.38,57.58 -4,17.74 -17.39,30.96 -33.69,35.7 -102.77,29.54 -204.12,67.72 -300.59,113.82 -48.07,23.29 -95.03,48.69 -138.55,77.24 -42.91,27.8 -85.14,62.15 -105.06,95l-0.76 1.25c-13.4,22.01 -42.08,29.03 -64.12,15.66 -1.93,-1.2 -3.97,-2.65 -5.66,-4.08 -12.12,-10.11 -32.39,-19.33 -54.45,-25.76 -22.2,-6.5 -46.42,-11.09 -71.23,-14.28 -49.73,-6.26 -101.55,-7.9 -153.49,-7.41 -52,0.61 -104.35,3.39 -156.69,7.71 -52.16,4.17 -105.16,9.29 -156.29,16.24l26.33 -14.65c-61.2,68.33 -124.84,129.67 -191.88,189.2 -66.32,59.81 -135.58,116.17 -207.11,169.36 -71.32,53.46 -145.01,103.62 -221.16,149.62 -75.54,46.89 -154.51,88.13 -234.54,126.02 72.26,-51.5 144.39,-102.02 213.51,-156.61 34.89,-26.69 68.92,-54.52 103.12,-81.95 33.49,-28.41 67.35,-56.21 100.23,-85.18 66.3,-57.27 130.14,-117.19 192.8,-178.01 61.86,-61.2 123.42,-124.72 179.18,-188.76l0.22 -0.24c7,-8.05 16.37,-12.9 26.11,-14.42 54.49,-8.44 107.66,-15.14 161.86,-20.04 54.03,-4.79 108.33,-8 163.07,-8.96 54.77,-0.79 109.95,0.49 166.18,7.21 28.15,3.48 56.6,8.49 85.68,16.83 28.91,8.69 59.2,19.83 88.57,43.7l-70.52 12.83c38.11,-61.59 86.59,-95.1 134.39,-128.15 48.32,-32.12 98.24,-59.33 149.03,-84.31 101.75,-49.32 206.81,-89.63 315.33,-121.5l4.35 93.65c-47.65,-10.4 -95.55,-19.45 -143.05,-31.08l-70.93 -19.33 -35.43 -9.84 -35.01 -12 -69.88 -24.24 -68.58 -29.25c-23.11,-8.95 -44.93,-21.83 -67.21,-33.27l-33.27 -17.62c-10.82,-6.43 -21.35,-13.67 -32.02,-20.51 -84.84,-54.28 -165.17,-126.24 -214.59,-224.16 -22.26,-49.44 -39.78,-103.89 -38.01,-160.49 0.45,-56.07 14.13,-111.79 39.06,-161.54l49.89 74.93c-79.89,3.89 -160.56,4.73 -239.69,-9.01 -39.92,-4.35 -78.54,-15.29 -117.63,-23.85 -38.13,-11.9 -76.89,-22.23 -113.65,-37.84 -74.39,-28.81 -145.79,-64.97 -212.46,-108.37l-49.34 -33.56c-15.9,-11.95 -32,-23.63 -47.55,-36.1 -31.53,-25.34 -60.43,-50.3 -90.76,-81.78l46.16 15.88c-88.97,13.54 -175.64,21 -265.68,20.32 -44.85,-0.42 -90.19,-3.29 -136.54,-11.31 -46,-8.71 -94.53,-20.25 -141.57,-54.57 -23.01,-17.35 -44.87,-43.58 -55.18,-74.86 -3.02,-7.75 -4.93,-15.5 -5.89,-23.35 -1.29,-7.85 -2.57,-16.02 -2.4,-22.65 -0.71,-13.89 0.26,-28.36 2.67,-42.89 4.88,-29.15 18.31,-58.3 37.1,-81.07 18.7,-22.99 41.44,-39.94 64.33,-52.7 46.18,-25.34 93.26,-36.73 139.32,-44.14 46.74,-6.97 90.73,-9.54 139.16,-7.68l-53.16 57.71c-3.76,-22.01 -12.81,-50.65 -23.56,-74.18 -10.7,-24.51 -25.05,-46.67 -41.49,-66.1 -32.67,-39.48 -77.26,-64.11 -128.03,-72.97 -50.69,-8.74 -107.64,-4.67 -155.24,13.17 -48.6,17.2 -89.07,51.92 -124.47,95.4 -36.34,43.57 -64.04,95.99 -105.09,150.63 -10.08,13.6 -22.25,27.53 -36.36,40.81 -15.26,14.15 -30.45,24.22 -45.53,33.34 -30.4,18.08 -60.29,30.69 -89.43,43.14 -58.22,24.41 -114.24,45.27 -164.12,73.29 -50.39,27.17 -93.21,61.68 -125.18,103.98l-0.4 0.49c-11.7,15.5 -30.92,22.03 -48.78,18.38 -32.9,-6.73 -69.93,-9.65 -106.61,-11.66 -36.88,-1.96 -74.37,-2.48 -111.96,-2.18 -75.03,0.47 -151.26,3.8 -225.93,9.1 -21.98,1.57 -41.54,-11.71 -48.93,-31.3l-0.36 -0.93c-4.64,-12.39 -14.04,-30.3 -23.46,-43.75 -9.74,-14.14 -20.98,-26.67 -33.18,-37.03 -12.12,-10.72 -25.68,-18.01 -39.75,-23.4 -13.88,-6.06 -29.36,-7.07 -44.92,-8.2l37.3 -17.91c-43.04,52.73 -91.84,93.58 -141.33,132.91 -49.61,39.06 -100.94,74.61 -153.1,108.37 -52.11,33.93 -105.01,66.18 -158.62,97.04 -53.76,30.94 -107.37,60.65 -163.16,89.37 -12.95,6.65 -27.56,6.6 -39.92,1.15l-0.46 -0.22c-67.2,-30.18 -140.08,-45.64 -214.1,-47.43 -74.22,-1.36 -149.13,10.94 -222.98,32.09 -37.15,10.36 -73.66,22.82 -112.5,35.62 -39.28,12.17 -82.83,27.16 -136.71,21.64 -26.26,-3.02 -50.72,-11.77 -71.37,-21.71 -20.63,-10.06 -39.09,-21.1 -56.8,-32.24 -35.16,-22.42 -67.82,-45.27 -100.82,-67.76l58 -5.72c-28.9,28.88 -61.39,56.13 -100.21,76.87 -38.49,20.73 -84.5,33.84 -130.43,32.49 -45.88,-1.2 -88.97,-14.7 -126.78,-32.86 -38.03,-18.31 -71.72,-41.22 -103.39,-65.36l72.36 -35.45c-1.6,63.94 -20.64,118.75 -47.75,170.54 -27.53,51.18 -65.59,97.29 -111.75,133.11 -11.29,9.3 -23.46,17.35 -35.65,25.32 -7.02,4.51 -9.57,6.73 -14.18,9.91 -4,3.09 -8.9,5.45 -12.12,9.15 -15.58,12.64 -26.2,28.49 -33.91,45.78 -7.53,17.42 -11.09,37.22 -10.94,58.03 -0.19,10.36 1.2,21 2.72,31.53 1.77,9.97 4.91,22.26 7.29,28.91l0.4 1.08c8.58,23.75 -3.71,49.96 -27.49,58.52 -15.16,5.47 -31.58,2.25 -43.5,-6.84l-84.77 -65.66 53.27 2.14c-113.67,73.26 -235.91,124.86 -359.16,170.18 -123.41,45.39 -249.48,80.16 -376.01,111.61 -126.58,31.5 -254.16,57.41 -382.27,80.01 -128.34,22.42 -256.2,42.11 -386.66,56.75 -26.23,2.94 -49.88,-15.93 -52.82,-42.15 -1.4,-12.35 2.06,-24.14 8.85,-33.47l0.35 -0.47 173.76 -237.63 53.93 74.63c-142.68,45.07 -292.4,70.39 -442.09,69.14 -74.81,0.54 -149.47,-5.49 -223.23,-16.32 -73.88,-10.25 -146.8,-26.15 -218.32,-46.25 -143.34,-39.55 -280.91,-96.72 -411.79,-165.39 -131.12,-69.73 -254.53,-147.91 -371.5,-245.02 -21,-17.42 -23.9,-48.55 -6.45,-69.59l1.99 -2.28 1.52 -1.59c17.78,-18.82 36.58,-41.58 53.12,-63.67 16.81,-22.37 32.19,-45.56 45.32,-69.21 13.15,-23.56 24.59,-47.79 31.09,-71.35 6.8,-23.48 9.4,-46.25 6.26,-64.93l81.65 30.5c-351.89,279.66 -761.83,477.05 -1188.39,606.8 -213.8,64.63 -432.41,112.59 -655.99,136.69 -56.08,5.67 -112.25,9.89 -170.4,9.84 -14.63,-0.13 -29.29,-0.45 -44.73,-1.62 -15.86,-1.47 -30.34,-2.16 -52.66,-8.81 -6.41,-2.48 -13.15,-4.07 -25.36,-13.44l-1.92 -1.57 -3.32 -3.36c-2.2,-2.38 -4.24,-4.95 -6.08,-7.71 -1.83,-2.7 -3.45,-5.54 -4.81,-8.42l-0.81 -1.93 -2.17 -5.52c-3.05,-7.58 -5.47,-14.38 -7.85,-21.12l-13.7 -40.17c-34.72,-105.97 -66.52,-211.27 -98.47,-317.25l20.42 26.87 -156.59 -99.64 71.36 -26.96c-33.9,116.42 -100.28,222.57 -185.75,306.18 -85.35,84.2 -187.54,147.78 -295.25,194.13 -107.98,46.25 -221.98,76.08 -337.65,90.69 -115.74,13.59 -233.39,13.27 -348.96,-6.09l41.2 -19.16c-44.35,68.89 -96.66,133.35 -157.95,188.43 -61.62,54.54 -131.12,100.52 -206.31,132.64 -75.13,32.17 -154.51,52.34 -234.36,60.61 -79.8,8.85 -159.97,6.11 -238.22,-4.64z"/>
   <path class="fil0" d="M516.7 21626.78c0,0 750.77,-403.42 862.82,-351.13l302.56 -100.84c0,0 -372.27,317.49 -700.97,466.89l-464.41 -14.92z"/>
   <path class="fil0" d="M1063.28 21751.28c0,0 174.32,-226.59 313.77,-288.84 139.44,-62.3 403.39,-122.04 577.71,-117.06l-552.81 371.03c0,0 -226.59,0 -338.66,34.87z"/>
   <path class="fil0" d="M1999.57 21432.54c-114.94,41.17 -490.55,383.49 -490.55,383.49 0,0 276.39,-52.31 338.65,-77.21 -32.37,52.31 -136.95,107.07 -136.95,107.07 0,0 266.45,2.5 351.11,-24.88 84.66,-27.38 358.57,-151.93 429.54,-256.49 237.82,-12.44 509.24,-136.94 735.85,-338.65 -273.92,151.88 -662.39,182.4 -662.39,182.4l161.86 -125.13c0,0 -353.59,88.38 -480.59,125.13 -127.01,36.73 -215.81,13.27 -246.53,24.27z"/>
   <path class="fil0" d="M2529.98 21589.41c0,0 -41.1,202.96 -250.26,286.36l88.39 13.71c0,0 69.72,-92.15 226.6,-93.38 156.88,-1.25 348.63,34.84 490.57,-44.83 141.94,-79.69 403.39,-283.88 403.39,-283.88 0,0 -263.96,133.2 -423.32,149.42 186.74,-80.95 570.24,-311.29 727.12,-488.68 -296.95,184.88 -642.47,274.51 -823.61,338.01 -181.15,63.52 -272.67,141.94 -438.88,123.26z"/>
   <path class="fil0" d="M3187.37 21845.94c0,0 242.78,-4.39 302.55,16.17 0,0 220.38,-119.54 285.75,-198 -149.42,80.33 -500.53,167.58 -588.3,181.83z"/>
   <path class="fil0" d="M4416.25 21544.59c169.93,-57.88 549.09,-89.95 549.09,-89.95 0,0 -466.92,-70.66 -668.6,123.56l-375.25 142.33c171.68,-88.38 401.38,-239.45 401.38,-239.45 0,0 -69.09,-48.55 -97.11,-121.38 110.2,5.59 237.19,-57.9 339.89,-56.04 -186.74,-149.4 -369.78,-97.11 -369.78,-97.11 0.01,0 -44.83,-31.75 -82.17,-78.42 -78.44,130.73 -295.09,224.08 -451.95,272.64 -87.79,134.45 -257.75,270.8 -418.36,351.1 0,0 561.53,-150.03 847.88,-346.74 -72.21,120.76 -263.93,235.3 -263.93,235.3 -11.21,82.19 -52.31,140.71 -52.31,140.71l-67.23 90.88 258.98 17.44c0,0 612.58,-145.69 898.94,-160.63l72.21 -64.75c0,0 -273.28,3.76 -521.68,-119.52z"/>
   <path class="fil0" d="M4197.73 21938.65c0,0 197.97,11.21 261.47,50.42 50.42,-78.44 229.7,-183.03 362.29,-212.89l23.36 -26.16 -647.13 188.63z"/>
   <path class="fil0" d="M4571.88 22006.49l314.99 -136.95c0,0 212.92,39.84 364.8,19.94 -154.37,87.15 -440.49,170.28 -679.78,117.01z"/>
   <path class="fil0" d="M7000.7 20993.42c56.34,58.12 58.83,107.94 28.93,244.89 -29.89,136.96 -124.49,321.25 -124.49,321.25 0,0 219.13,-117.06 293.82,-353.64 74.71,-236.55 -58.94,-335.62 -58.94,-335.62 0.01,0 -26.96,72.5 -3.31,157.37l-91.05 -61.61 -44.95 27.36z"/>
   <path class="fil0" d="M6996.31 21643.86c52.75,-22.72 103.66,-57.93 150.84,-98.36 47.28,-40.58 91.27,-86.69 132.03,-135.96 40.7,-49.29 78.29,-101.82 111.7,-157.13 33.13,-55.42 63.3,-113.23 81.97,-175.97 -8.92,64.97 -30.37,128.22 -55.25,189.39 -25.27,61.22 -55.31,120.64 -89.53,178.08 -34.32,57.37 -72.87,112.85 -117.45,164.88 -44.73,51.84 -95.35,100.89 -157.64,140.32l-56.67 -105.26z"/>
   <path class="fil0" d="M10324.54 21466.05c50.37,-63.55 104.83,-118.83 161.42,-171.95 56.7,-52.77 115.44,-102.7 176.73,-149.3 61.37,-46.45 124.94,-90 191.77,-127.95 66.72,-37.34 137.33,-70.96 212.29,-84.84 -72.35,23.61 -136.01,65.14 -195.92,109.87 -59.81,45.27 -115.68,95.47 -168.92,148.05 -53.17,52.71 -103.4,108.28 -150.68,165.64 -46.98,57.34 -91.71,117.14 -128,177.91l-98.68 -67.42z"/>
   <path class="fil0" d="M9863.38 22159.67c-194.23,194.23 -576.32,530.39 -1245.64,565.26 169.92,-107.1 535.96,-251.52 535.96,-251.52 0.01,0 283.86,-249.01 709.68,-313.73z"/>
   <path class="fil0" d="M7726.88 22764.74c251.49,-104.57 539.2,-174.72 791.84,-206.66 413.37,-52.31 836.7,-376.01 769.47,-503.01 -204.21,109.55 -463.16,144.42 -577.72,191.72 -114.56,47.33 -408.4,64.75 -475.63,99.62 -67.23,34.87 -507.97,418.33 -507.96,418.33z"/>
   <path class="fil0" d="M7049.55 22428.58c234.07,-29.89 687.26,-398.41 687.26,-398.41 0.01,0 196.73,47.31 388.47,-12.46 -224.13,196.73 -864.09,468.14 -1075.73,410.88z"/>
   <path class="fil0" d="M6085.86 22677.6c0,0 474.37,-207.3 575.24,-241.24 100.84,-33.93 357.34,-119.84 357.34,-119.84 0.01,0 -78.44,429.55 -932.58,361.07z"/>
   <path class="fil0" d="M5392.99 22287.89c0,0 85.92,35.48 112.05,61.64 112.06,-65.36 270.81,-104.6 336.17,-147.56 65.36,-42.94 394.06,-255.56 394.06,-255.56 0,0 -283.88,121.11 -610.69,177.14l-231.6 164.34z"/>
   <polygon class="fil0" points="5179.49,22201.97 5290.29,22245.57 5469.57,22153.44 "/>
   <path class="fil0" d="M12103.87 20586.93c-51.23,-2.84 -101.63,-7.02 -149.3,-13.62 -105.23,-14.52 -213.92,-38 -312.66,-77.97 -82.83,-33.54 -139.73,-79.22 -196.83,-134.09l49.37 77.73c0,0 -1394.49,-161.86 -1471.68,616.31 97.12,-193 295.07,-474.37 1333.47,-485.59 -788.14,145.67 -1236.36,291.36 -1150.46,765.71 0.01,-190.5 272.66,-422.07 705.94,-515.45 433.31,-93.39 758.26,-154.94 1176.62,-112.96 4.96,0.49 9.4,0.72 14.18,1.11 -3.78,-40.61 -3.07,-81.02 1.35,-121.18z"/>
   <path class="fil0" d="M10745.52 20133.48c-334.31,49.03 -737.7,293.06 -804.95,517.17 186.79,-201.71 513.98,-380.45 938.57,-372.57 0,0 -155.43,-19.27 -133.61,-144.6z"/>
   <path class="fil0" d="M10174.65 20189.96c-94.62,42.33 -355.46,263.96 -417.09,536.63 -61.63,272.66 -164.34,265.2 -110.19,438.87 -76.57,-113.92 -35.48,-190.5 39.23,-366.05 74.72,-175.53 -1.67,-295.02 213.02,-507.01l45.96 7.11c0,0 59.45,-106.14 199.99,-147.68l29.08 38.13z"/>
   <path class="fil0" d="M8727.57 20601.7c-61.12,37.07 -119.17,79.11 -168.34,130.85 -49.05,51.5 -88.65,114.24 -107.13,186.39 3.49,-74.32 30.62,-148.51 71.5,-213.61 40.83,-65.51 93.58,-123.02 149.85,-175.11l54.12 71.47z"/>
   <path class="fil0" d="M8082.94 20595.84c-86.54,56.04 -135.07,157.52 -58.5,266.48 76.56,108.92 171.8,220.97 153.13,312.49 -18.67,91.49 -121.38,216.65 -61.64,339.89 22.4,7.48 -10.47,-90.44 19.29,-153.13 54.72,-115.17 70.98,-109.58 75.96,-220.38 4.96,-110.31 -106.66,-222.25 -112.15,-332.44 -5.49,-110.19 132.69,-225.98 278.35,-242.81l-26.2 -43.43 -268.25 73.31z"/>
   <path class="fil0" d="M7910.68 20570c-125.27,37.05 -554.83,225.7 -465.2,373.21 41.1,-98.98 127,-179.28 379.13,-244.64 -65.36,151.29 -22.43,229.61 42.93,320.24 65.37,90.64 149.42,185.89 143.83,260.6 -5.62,74.71 52.26,68.48 52.26,107.07 0.01,38.59 0,117.01 0,117.01l13.1 -9.3c0,0 -1.89,-85.92 0,-121.43 1.87,-35.48 -42.96,-46.67 -42.96,-91.49 0.01,-44.83 -57.91,-216.23 -141.94,-377.26 -84.03,-161.03 143.16,-298.85 143.16,-298.85l-124.32 -35.16z"/>
   <path class="fil0" d="M8375.99 21589.68c-30.1,-39.43 -51.97,-80.53 -70.83,-122.7 -18.67,-42.18 -33.2,-85.71 -43.75,-130.14 -10.33,-44.36 -16.78,-90 -14.63,-135.63 2.14,-45.05 14.31,-92.45 45.34,-124.77 -24.93,37.22 -27.9,82.24 -22.94,124.08 5.23,42.27 18.35,83.3 34.87,122.51 16.69,39.18 36.88,76.85 60.24,111.93 23.29,34.91 49.56,68.13 78.02,94.41l-66.32 60.31z"/>
   <path class="fil0" d="M5686.37 21209.92c-143.95,58.28 -276.57,155.39 -317.66,203.94 -214.76,28.02 -289.45,224.11 -289.45,224.11 0.01,0 287.59,-82.54 444.47,-214.03 -36.26,-7.32 -82.79,-6.36 -82.79,-6.36l147.83 -74.61 97.61 -133.06z"/>
   <path class="fil0" d="M5513.15 21605.61c62.25,-92.13 230.34,-174.33 423.31,-149.4 -112.98,27.7 -423.31,149.4 -423.31,149.4z"/>
   <path class="fil0" d="M2296.33 21211.73c-24.37,5.4 -42.38,4.51 -61.41,3.12 -18.81,-1.64 -36.98,-4.88 -55.14,-7.68 -36.31,-5.77 -72.1,-12.29 -107.87,-18.92 -71.42,-14.16 -142.41,-29.32 -213.03,-47.06l217.28 -9.52c36.01,-1.35 72.04,-2.8 107.64,-5.06l52.76 -3.65c16.94,-0.79 35.02,-1.33 46.46,0.12l13.3 88.65z"/>
   <path class="fil0" d="M9733.91 20284.82c0,89.41 -261.48,194 -308.76,306.06 -47.33,112.03 -19.95,212.9 0,286.36 19.91,73.46 29.86,237.8 18.65,319.97 -11.21,82.19 7.48,116.74 51.38,156.91 43.88,40.14 61.64,89.63 61.64,89.63l39.21 0c0,0 -27.09,-70.05 -77.51,-108.32 -50.42,-38.3 -49.49,-83.11 -43.89,-139.14 5.62,-56.02 9.03,-236.85 -10.89,-325.27 -19.93,-88.38 -16.17,-204.19 73.46,-263.96 89.66,-59.74 322.5,-229.09 363.55,-287.58l16.23 -34.64 -183.04 0z"/>
   <path class="fil0" d="M9487.39 20294.56c-125.75,-3.12 -176.19,-12.88 -262.09,97.51 -85.92,110.41 -119.54,164.58 -59.76,334.52 59.77,169.93 97.11,197.97 125.13,192.36 28.02,-5.59 44.8,-70.96 -13.08,-239.05 -57.88,-168.1 -12.78,-284.34 33.76,-318.64 46.55,-34.33 232.11,-70.39 232.11,-70.39l-56.06 3.7z"/>
   <path class="fil0" d="M11981.88 20541.69c179.11,9.03 401.53,-72.85 401.53,-72.85 0,0 -41.93,243.74 -333.03,234.66l-126.41 -74.05 57.91 -87.77z"/>
   <path class="fil1" d="M11143.32 20401.93c-2.5,-158.85 166.84,-270.88 196.72,-268.39 29.86,2.5 87.15,64.74 87.15,84.67 0.01,19.92 -141.94,74.71 -179.28,144.41l-104.6 39.31z"/>
   <path class="fil0" d="M11143.32 20401.93c-6.45,-29.69 -4.79,-61.46 2.35,-92.23 7.81,-30.62 21.69,-59.63 39.26,-85.95 17.13,-26.79 38.99,-50.01 62.73,-71.28 12.12,-10.45 24.91,-20.07 39.09,-28.91 6.85,-4.44 14.68,-8.46 22.9,-12.29 4.12,-1.94 9.72,-3.66 14.55,-5.33 6.02,-1.54 17.88,-3.21 23.92,-1.27 14.38,2.99 22.85,8.24 30.8,13.17 8,5.06 14.62,10.48 21.17,16.02 12.56,11.43 23.77,23.33 33.84,37.22 4.99,7.14 9.72,14.08 14.23,23.95 2.09,5.03 4.83,10.15 5.62,21.34 0.77,5.1 -3.46,17.74 -7,21.69 -2.33,2.7 -4.79,5.28 -7.33,7.75 -16.39,13.4 -28.86,18.48 -42.67,25.71 -26.67,13.74 -53.03,25.76 -78.37,39.89 -25.71,13.72 -49.8,28.98 -70.49,51.18 9.25,-29.34 31.13,-53.95 53.21,-74.88 22.68,-20.73 47.34,-39.16 71.45,-56.06 11.39,-8.35 24.95,-17.92 30.96,-24 -0.01,-0.26 0.05,-0.39 0.25,-0.42 -1.91,0.81 -4.22,9.84 -3.39,11.39 0.1,3.8 0.07,1.89 -1.18,0.37 -2.01,-3.51 -6.02,-8.66 -10.04,-13.25 -8.24,-9.47 -17.64,-19.08 -27.53,-27.08 -4.85,-3.88 -9.81,-7.8 -14.42,-10.53 -4.49,-3.07 -9.67,-4.69 -9.67,-4.69 -1.12,-0.39 3.12,0.59 1.99,0.05 -2.09,0.91 -3.73,1.11 -6.36,2.29 -5.27,2.38 -10.65,5.05 -16.41,8.46 -11.43,6.18 -22.5,14.3 -33.71,22.13 -22.4,16.02 -42.32,35.5 -61.36,55.72 -37.61,41.17 -66.02,90.22 -78.39,149.82z"/>
   <path class="fil0" d="M10508.33 21962.94c0,0 115.81,-194.24 127,-194.24 11.22,0 168.07,-93.39 212.92,-93.39 44.83,0 354.83,-59.74 354.83,-59.74 0.01,0 -448.22,265.17 -694.75,347.37zm-1890.58 -37.34c172.41,-18.7 553.3,-156.9 781.2,-276.41 -197.93,175.55 -487.09,374.19 -781.2,276.41zm2943.93 -565.28c0,0 331.18,-181.78 622.52,-251.51 -662.37,-69.7 -1083.23,288.86 -1083.23,288.86l-112.03 12.46c0,0 283.86,-254 525.41,-371.03 -393.43,27.38 -617.54,318.74 -709.7,418.33 -92.13,99.62 -241.56,7.46 -241.56,7.46 0,0 -236.53,-204.16 -592.64,-224.11 -356.06,-19.9 -393.43,184.29 -393.43,184.29 0.01,0 -181.76,-49.8 -246.53,-2.48 -296.32,-161.86 -221.61,-376.04 -146.9,-560.3 -298.82,258.97 -253.99,590.15 -253.99,590.15 0,0 -87.15,-34.87 -134.46,0 -169.34,-144.41 -139.46,-348.63 -82.19,-491.85 -246.53,197.95 -54.76,511.77 -54.76,511.77 0.01,0 -176.8,24.88 -249.04,24.88 -72.21,0 -306.28,-54.76 -413.35,7.48 -107.07,62.25 -163.73,59.77 -163.73,59.77 0,0 20.56,49.19 7.48,52.92 -13.08,3.73 -35.51,-16.83 -106.46,-31.75 -70.98,-14.94 -24.29,-29.89 -162.48,-50.44 -138.2,-20.54 -319.35,117.67 -388.45,120.47 -116,4.72 -128.86,7.48 -204.51,-15.87 -75.64,-23.33 -189.56,-8.1 -189.56,-8.1 0,0 139.43,-214.15 92.13,-331.18 -117.03,281.4 -373.53,373.53 -373.53,373.53 0.01,0 67.26,-181.79 32.39,-239.08 -92.13,251.51 -378.51,315.01 -378.51,315.01 0,0 144.44,-163.09 159.39,-282.62 -97.14,151.9 -423.32,296.32 -423.32,296.32 0,-0.01 -615.07,62.27 -948.75,64.77 223.96,85.74 811.15,7.43 811.15,7.43l-112.05 61.63 -156.88 7.48 -272.66 205.44 481.86 -57.91c0,0 328.68,-78.44 448.22,-132.59 119.52,-54.17 149.4,-54.17 257.73,-18.7 108.32,35.51 338.03,0 560.28,-84.03 -140.07,183.01 -446.35,153.15 -446.35,153.15 0,0 -93.39,41.07 -197.98,97.11 -104.57,56.04 -175.53,126.99 -373.51,433.28 418.33,-44.8 713.43,-313.74 870.3,-410.85 -134.48,190.47 -324.97,351.08 -324.97,351.08 0,0 246.53,-59.74 687.27,-268.94 440.75,-209.14 456.92,-439.5 456.92,-439.5 0.01,0 -410.84,210.41 -627.5,216.64 183.04,-43.57 496.77,-226.58 618.79,-344.87 30.85,39.21 155.95,43.89 155.95,43.89l-67.53 40.78 -32.38 236.57 517.95 -333.68 74.7 -7.48 -328.71 313.73c488.08,-44.8 856.6,-267.68 856.6,-267.68l59.77 29.91c0,0 -276.4,194.23 -366.05,231.56 -89.65,37.37 -201.71,209.17 -537.85,429.55 649.91,-127 1430.57,-336.16 1430.57,-336.16 0,0 48.55,82.17 156.88,82.17 108.32,0 784.39,-194.22 784.39,-194.22 -320.65,374.04 -862.83,709.66 -862.83,709.66 0,0 575.22,-115.78 676.06,-302.55 735.86,-231.57 1161.65,-686.02 1161.65,-686.02l331.16 -37.84c0,0 15,-16.95 223.67,-38.86 208.73,-21.92 306.5,8.39 420.08,53.05 75.94,-168.1 -720.89,-210.42 -720.88,-210.42z"/>
  </g>
 </g>
</svg>
